solid OpenSCAD_Model
  facet normal 0 -1 0
    outer loop
      vertex -2 -57.435 7
      vertex -2.29999 -57.435 10
      vertex -3.5 -57.435 7.25
    endloop
  endfacet
  facet normal 0 -1 0
    outer loop
      vertex -2 -57.435 7
      vertex -3.5 -57.435 7.25
      vertex -3.25 -57.435 7
    endloop
  endfacet
  facet normal 0 -1 0
    outer loop
      vertex -2.29999 -57.435 10
      vertex -2 -57.435 7
      vertex 0.450012 -57.435 10
    endloop
  endfacet
  facet normal -0 -1 -8.47711e-007
    outer loop
      vertex 1.2375 -57.435 2.5
      vertex -2 -57.435 7
      vertex 0.25 -57.435 2.5
    endloop
  endfacet
  facet normal 5.51853e-007 -1 -4.50682e-007
    outer loop
      vertex -2 -57.435 7
      vertex 1.2375 -57.435 2.5
      vertex 0.450012 -57.435 10
    endloop
  endfacet
  facet normal 2.72479e-006 -1 -5.44957e-007
    outer loop
      vertex -2 -57.435 7.03353e-015
      vertex -1.5 -57.435 2.5
      vertex -2 -57.435 7
    endloop
  endfacet
  facet normal 0 -1 -0
    outer loop
      vertex -1.5 -57.435 2.5
      vertex -2 -57.435 7.03353e-015
      vertex -1.5 -57.435 7.03353e-015
    endloop
  endfacet
  facet normal 0 -1 -8.47711e-007
    outer loop
      vertex -2 -57.435 7
      vertex -1.5 -57.435 2.5
      vertex 0.25 -57.435 2.5
    endloop
  endfacet
  facet normal 0 1 0
    outer loop
      vertex 1.2375 -52.435 2.5
      vertex -2 -52.435 7
      vertex 0.450012 -52.435 10
    endloop
  endfacet
  facet normal 0 1 0
    outer loop
      vertex -2 -52.435 7
      vertex 1.2375 -52.435 2.5
      vertex 0.25 -52.435 2.5
    endloop
  endfacet
  facet normal 0 1 -0
    outer loop
      vertex -2 -52.435 7
      vertex -2.29999 -52.435 10
      vertex 0.450012 -52.435 10
    endloop
  endfacet
  facet normal 0 1 0
    outer loop
      vertex -2.29999 -52.435 10
      vertex -2 -52.435 7
      vertex -3.5 -52.435 7.25
    endloop
  endfacet
  facet normal 0 1 0
    outer loop
      vertex -3.5 -52.435 7.25
      vertex -2 -52.435 7
      vertex -3.25 -52.435 7
    endloop
  endfacet
  facet normal 0 1 -0
    outer loop
      vertex -1.5 -52.435 2.5
      vertex -2 -52.435 7
      vertex 0.25 -52.435 2.5
    endloop
  endfacet
  facet normal 0 1 0
    outer loop
      vertex -2 -52.435 6.42122e-015
      vertex -1.5 -52.435 2.5
      vertex -1.5 -52.435 6.42122e-015
    endloop
  endfacet
  facet normal 0 1 0
    outer loop
      vertex -1.5 -52.435 2.5
      vertex -2 -52.435 6.42122e-015
      vertex -2 -52.435 7
    endloop
  endfacet
  facet normal 0 0 -1
    outer loop
      vertex -3.25 -57.435 7
      vertex -2 -52.435 7
      vertex -2 -57.435 7
    endloop
  endfacet
  facet normal -0 0 -1
    outer loop
      vertex -2 -52.435 7
      vertex -3.25 -57.435 7
      vertex -3.25 -52.435 7
    endloop
  endfacet
  facet normal -0.707107 0 -0.707107
    outer loop
      vertex -3.25 -57.435 7
      vertex -3.5 -52.435 7.25
      vertex -3.25 -52.435 7
    endloop
  endfacet
  facet normal -0.707107 -0 -0.707107
    outer loop
      vertex -3.5 -52.435 7.25
      vertex -3.25 -57.435 7
      vertex -3.5 -57.435 7.25
    endloop
  endfacet
  facet normal -0.916538 0 0.399948
    outer loop
      vertex -3.5 -57.435 7.25
      vertex -2.29999 -52.435 10
      vertex -3.5 -52.435 7.25
    endloop
  endfacet
  facet normal -0.916538 0 0.399948
    outer loop
      vertex -2.29999 -52.435 10
      vertex -3.5 -57.435 7.25
      vertex -2.29999 -57.435 10
    endloop
  endfacet
  facet normal -0 0 1
    outer loop
      vertex -2.29999 -52.435 10
      vertex 0.450012 -57.435 10
      vertex 0.450012 -52.435 10
    endloop
  endfacet
  facet normal 0 0 1
    outer loop
      vertex 0.450012 -57.435 10
      vertex -2.29999 -52.435 10
      vertex -2.29999 -57.435 10
    endloop
  endfacet
  facet normal 0.994533 0 0.104425
    outer loop
      vertex 0.450012 -52.435 10
      vertex 1.2375 -57.435 2.5
      vertex 1.2375 -52.435 2.5
    endloop
  endfacet
  facet normal 0.994533 0 0.104425
    outer loop
      vertex 1.2375 -57.435 2.5
      vertex 0.450012 -52.435 10
      vertex 0.450012 -57.435 10
    endloop
  endfacet
  facet normal -0 1.22461e-016 1
    outer loop
      vertex 54.84 -16.145 1.97713e-015
      vertex 55.34 -52.435 6.42122e-015
      vertex 55.34 -16.145 1.97713e-015
    endloop
  endfacet
  facet normal 0 1.22461e-016 1
    outer loop
      vertex 55.34 -52.435 6.42122e-015
      vertex 54.84 -16.145 1.97713e-015
      vertex 54.84 -52.435 6.42122e-015
    endloop
  endfacet
  facet normal 1.03017e-023 1.22461e-016 1
    outer loop
      vertex 60.34 2 -2.44921e-016
      vertex 54.84 -3.5 4.28612e-016
      vertex 55.34 -11.145 1.36482e-015
    endloop
  endfacet
  facet normal -2.65363e-024 1.22461e-016 1
    outer loop
      vertex 60.34 2 -2.44921e-016
      vertex 54.7439 -2.52455 3.09158e-016
      vertex 54.84 -3.5 4.28612e-016
    endloop
  endfacet
  facet normal 1.59603e-024 1.22461e-016 1
    outer loop
      vertex 60.34 2 -2.44921e-016
      vertex 54.4594 -1.58658 1.94294e-016
      vertex 54.7439 -2.52455 3.09158e-016
    endloop
  endfacet
  facet normal -1.30912e-025 1.22461e-016 1
    outer loop
      vertex 60.34 2 -2.44921e-016
      vertex 53.9973 -0.722149 8.84348e-017
      vertex 54.4594 -1.58658 1.94294e-016
    endloop
  endfacet
  facet normal 1.4914e-025 1.22461e-016 1
    outer loop
      vertex 60.34 2 -2.44921e-016
      vertex 53.3755 0.0355339 -4.3515e-018
      vertex 53.9973 -0.722149 8.84348e-017
    endloop
  endfacet
  facet normal 2.29146e-024 1.22461e-016 1
    outer loop
      vertex 55.34 7 -8.57224e-016
      vertex 52.6179 0.657348 -8.04992e-017
      vertex 53.3755 0.0355339 -4.3515e-018
    endloop
  endfacet
  facet normal -5.58086e-024 1.22461e-016 1
    outer loop
      vertex 55.34 7 -8.57224e-016
      vertex 51.7534 1.1194 -1.37082e-016
      vertex 52.6179 0.657348 -8.04992e-017
    endloop
  endfacet
  facet normal 7.74286e-024 1.22461e-016 1
    outer loop
      vertex 55.34 7 -8.57224e-016
      vertex 50.8155 1.40393 -1.71926e-016
      vertex 51.7534 1.1194 -1.37082e-016
    endloop
  endfacet
  facet normal -4.68004e-024 1.22461e-016 1
    outer loop
      vertex 55.34 7 -8.57224e-016
      vertex 49.84 1.5 -1.83691e-016
      vertex 50.8155 1.40393 -1.71926e-016
    endloop
  endfacet
  facet normal 0 1.22461e-016 1
    outer loop
      vertex 55.34 7 -8.57224e-016
      vertex 3.5 1.5 -1.83691e-016
      vertex 49.84 1.5 -1.83691e-016
    endloop
  endfacet
  facet normal -0 1.22461e-016 1
    outer loop
      vertex -2 7 -8.57224e-016
      vertex 3.5 1.5 -1.83691e-016
      vertex 55.34 7 -8.57224e-016
    endloop
  endfacet
  facet normal 0 1.22461e-016 1
    outer loop
      vertex -1.5 -3.5 4.28612e-016
      vertex -2 -11.145 1.36482e-015
      vertex -1.5 -11.145 1.36482e-015
    endloop
  endfacet
  facet normal 1.37414e-022 1.22461e-016 1
    outer loop
      vertex -7 2 -2.44921e-016
      vertex -2 -16.145 1.97713e-015
      vertex -2 -11.145 1.36482e-015
    endloop
  endfacet
  facet normal -7.00725e-023 1.22461e-016 1
    outer loop
      vertex -2 -16.145 1.97713e-015
      vertex -7 2 -2.44921e-016
      vertex -2 -52.435 6.42122e-015
    endloop
  endfacet
  facet normal -8.96239e-024 1.22461e-016 1
    outer loop
      vertex -1.5 -3.5 4.28612e-016
      vertex -7 2 -2.44921e-016
      vertex -2 -11.145 1.36482e-015
    endloop
  endfacet
  facet normal 2.65363e-024 1.22461e-016 1
    outer loop
      vertex -1.40393 -2.52455 3.09158e-016
      vertex -7 2 -2.44921e-016
      vertex -1.5 -3.5 4.28612e-016
    endloop
  endfacet
  facet normal -1.59603e-024 1.22461e-016 1
    outer loop
      vertex -1.1194 -1.58658 1.94294e-016
      vertex -7 2 -2.44921e-016
      vertex -1.40393 -2.52455 3.09158e-016
    endloop
  endfacet
  facet normal 1.30912e-025 1.22461e-016 1
    outer loop
      vertex -0.657348 -0.722149 8.84348e-017
      vertex -7 2 -2.44921e-016
      vertex -1.1194 -1.58658 1.94294e-016
    endloop
  endfacet
  facet normal -1.4914e-025 1.22461e-016 1
    outer loop
      vertex -0.0355339 0.0355339 -4.3515e-018
      vertex -7 2 -2.44921e-016
      vertex -0.657348 -0.722149 8.84348e-017
    endloop
  endfacet
  facet normal -2.31601e-026 1.22461e-016 1
    outer loop
      vertex -7 2 -2.44921e-016
      vertex -0.0355339 0.0355339 -4.3515e-018
      vertex -2 7 -8.57224e-016
    endloop
  endfacet
  facet normal -2.29146e-024 1.22461e-016 1
    outer loop
      vertex 0.722149 0.657348 -8.04992e-017
      vertex -2 7 -8.57224e-016
      vertex -0.0355339 0.0355339 -4.3515e-018
    endloop
  endfacet
  facet normal 5.58085e-024 1.22461e-016 1
    outer loop
      vertex 1.58658 1.1194 -1.37082e-016
      vertex -2 7 -8.57224e-016
      vertex 0.722149 0.657348 -8.04992e-017
    endloop
  endfacet
  facet normal -7.74286e-024 1.22461e-016 1
    outer loop
      vertex 2.52455 1.40393 -1.71926e-016
      vertex -2 7 -8.57224e-016
      vertex 1.58658 1.1194 -1.37082e-016
    endloop
  endfacet
  facet normal 4.68004e-024 1.22461e-016 1
    outer loop
      vertex 3.5 1.5 -1.83691e-016
      vertex -2 7 -8.57224e-016
      vertex 2.52455 1.40393 -1.71926e-016
    endloop
  endfacet
  facet normal -9.12876e-024 1.22461e-016 1
    outer loop
      vertex 59.9594 3.91342 -4.7924e-016
      vertex 53.3755 0.0355339 -4.3515e-018
      vertex 60.2439 2.97545 -3.64376e-016
    endloop
  endfacet
  facet normal 0 1.22461e-016 1
    outer loop
      vertex 60.34 2 -2.44921e-016
      vertex 55.34 -16.145 1.97713e-015
      vertex 60.34 -70.58 8.64327e-015
    endloop
  endfacet
  facet normal 6.371e-024 1.22461e-016 1
    outer loop
      vertex 59.4973 4.77785 -5.85099e-016
      vertex 53.3755 0.0355339 -4.3515e-018
      vertex 59.9594 3.91342 -4.7924e-016
    endloop
  endfacet
  facet normal 0 1.22461e-016 1
    outer loop
      vertex 55.34 -52.435 6.42122e-015
      vertex 60.34 -70.58 8.64327e-015
      vertex 55.34 -16.145 1.97713e-015
    endloop
  endfacet
  facet normal 1.24828e-024 1.22461e-016 1
    outer loop
      vertex 58.8755 5.53553 -6.77885e-016
      vertex 53.3755 0.0355339 -4.3515e-018
      vertex 59.4973 4.77785 -5.85099e-016
    endloop
  endfacet
  facet normal 1.45997e-023 1.22461e-016 1
    outer loop
      vertex 55.34 -57.435 7.03353e-015
      vertex 60.34 -70.58 8.64327e-015
      vertex 55.34 -52.435 6.42122e-015
    endloop
  endfacet
  facet normal 2.36864e-023 1.22461e-016 1
    outer loop
      vertex 58.1179 6.15735 -7.54033e-016
      vertex 53.3755 0.0355339 -4.3515e-018
      vertex 58.8755 5.53553 -6.77885e-016
    endloop
  endfacet
  facet normal -8.96239e-024 1.22461e-016 1
    outer loop
      vertex 54.84 -65.08 7.96974e-015
      vertex 60.34 -70.58 8.64327e-015
      vertex 55.34 -57.435 7.03353e-015
    endloop
  endfacet
  facet normal 1.07108e-023 1.22461e-016 1
    outer loop
      vertex 57.2534 6.6194 -8.10616e-016
      vertex 53.3755 0.0355339 -4.3515e-018
      vertex 58.1179 6.15735 -7.54033e-016
    endloop
  endfacet
  facet normal 4.28442e-022 1.22461e-016 1
    outer loop
      vertex 54.7439 -66.0555 8.08919e-015
      vertex 60.34 -70.58 8.64327e-015
      vertex 54.84 -65.08 7.96974e-015
    endloop
  endfacet
  facet normal -2.88433e-023 1.22461e-016 1
    outer loop
      vertex 56.3155 6.90393 -8.45459e-016
      vertex 53.3755 0.0355339 -4.3515e-018
      vertex 57.2534 6.6194 -8.10616e-016
    endloop
  endfacet
  facet normal -1.01031e-022 1.2246e-016 1
    outer loop
      vertex 54.4594 -66.9934 8.20406e-015
      vertex 60.34 -70.58 8.64327e-015
      vertex 54.7439 -66.0555 8.08919e-015
    endloop
  endfacet
  facet normal 8.20203e-024 1.22461e-016 1
    outer loop
      vertex 53.3755 0.0355339 -4.3515e-018
      vertex 56.3155 6.90393 -8.45459e-016
      vertex 55.34 7 -8.57224e-016
    endloop
  endfacet
  facet normal 3.40228e-022 1.22461e-016 1
    outer loop
      vertex 53.9973 -67.8578 8.30992e-015
      vertex 60.34 -70.58 8.64327e-015
      vertex 54.4594 -66.9934 8.20406e-015
    endloop
  endfacet
  facet normal -7.71116e-025 1.22461e-016 1
    outer loop
      vertex 60.2439 2.97545 -3.64376e-016
      vertex 53.3755 0.0355339 -4.3515e-018
      vertex 60.34 2 -2.44921e-016
    endloop
  endfacet
  facet normal -2.25171e-023 1.22461e-016 1
    outer loop
      vertex 60.34 2 -2.44921e-016
      vertex 55.34 -11.145 1.36482e-015
      vertex 55.34 -16.145 1.97713e-015
    endloop
  endfacet
  facet normal -1.71753e-022 1.2246e-016 1
    outer loop
      vertex 53.3755 -68.6155 8.4027e-015
      vertex 60.34 -70.58 8.64327e-015
      vertex 53.9973 -67.8578 8.30992e-015
    endloop
  endfacet
  facet normal 1.53029e-022 1.22461e-016 1
    outer loop
      vertex 60.34 -70.58 8.64327e-015
      vertex 53.3755 -68.6155 8.4027e-015
      vertex 60.2439 -71.5555 8.76273e-015
    endloop
  endfacet
  facet normal -1.34537e-022 1.2246e-016 1
    outer loop
      vertex 60.2439 -71.5555 8.76273e-015
      vertex 53.3755 -68.6155 8.4027e-015
      vertex 59.9594 -72.4934 8.87759e-015
    endloop
  endfacet
  facet normal 2.98689e-022 1.22461e-016 1
    outer loop
      vertex 59.9594 -72.4934 8.87759e-015
      vertex 53.3755 -68.6155 8.4027e-015
      vertex 59.4973 -73.3578 8.98345e-015
    endloop
  endfacet
  facet normal 0 1.22461e-016 1
    outer loop
      vertex 54.84 -65.08 7.96974e-015
      vertex 55.34 -57.435 7.03353e-015
      vertex 54.84 -57.435 7.03353e-015
    endloop
  endfacet
  facet normal -4.59612e-022 1.2246e-016 1
    outer loop
      vertex 59.4973 -73.3578 8.98345e-015
      vertex 53.3755 -68.6155 8.4027e-015
      vertex 58.8755 -74.1155 9.07624e-015
    endloop
  endfacet
  facet normal -2.30855e-023 1.22461e-016 1
    outer loop
      vertex 58.8755 -74.1155 9.07624e-015
      vertex 53.3755 -68.6155 8.4027e-015
      vertex 58.1179 -74.7374 9.15238e-015
    endloop
  endfacet
  facet normal 3.90735e-022 1.22461e-016 1
    outer loop
      vertex 58.1179 -74.7374 9.15238e-015
      vertex 53.3755 -68.6155 8.4027e-015
      vertex 57.2534 -75.1994 9.20897e-015
    endloop
  endfacet
  facet normal -2.48527e-022 1.22461e-016 1
    outer loop
      vertex 57.2534 -75.1994 9.20897e-015
      vertex 53.3755 -68.6155 8.4027e-015
      vertex 56.3155 -75.4839 9.24381e-015
    endloop
  endfacet
  facet normal -3.55319e-022 1.22461e-016 1
    outer loop
      vertex 56.3155 -75.4839 9.24381e-015
      vertex 53.3755 -68.6155 8.4027e-015
      vertex 55.34 -75.58 9.25557e-015
    endloop
  endfacet
  facet normal -1.77858e-023 1.22461e-016 1
    outer loop
      vertex 52.6179 -69.2374 8.47885e-015
      vertex 55.34 -75.58 9.25557e-015
      vertex 53.3755 -68.6155 8.4027e-015
    endloop
  endfacet
  facet normal 4.56689e-022 1.22461e-016 1
    outer loop
      vertex 51.7534 -69.6994 8.53543e-015
      vertex 55.34 -75.58 9.25557e-015
      vertex 52.6179 -69.2374 8.47885e-015
    endloop
  endfacet
  facet normal -2.03222e-022 1.2246e-016 1
    outer loop
      vertex 50.8155 -69.9839 8.57028e-015
      vertex 55.34 -75.58 9.25557e-015
      vertex 51.7534 -69.6994 8.53543e-015
    endloop
  endfacet
  facet normal -3.34646e-022 1.2246e-016 1
    outer loop
      vertex 49.84 -70.08 8.58204e-015
      vertex 55.34 -75.58 9.25557e-015
      vertex 50.8155 -69.9839 8.57028e-015
    endloop
  endfacet
  facet normal 0 1.22461e-016 1
    outer loop
      vertex 35 -75.58 9.25557e-015
      vertex 49.84 -70.08 8.58204e-015
      vertex 35 -70.08 8.58204e-015
    endloop
  endfacet
  facet normal 0 1.22461e-016 1
    outer loop
      vertex 49.84 -70.08 8.58204e-015
      vertex 35 -75.58 9.25557e-015
      vertex 55.34 -75.58 9.25557e-015
    endloop
  endfacet
  facet normal 0 1.22461e-016 1
    outer loop
      vertex 55.34 -11.145 1.36482e-015
      vertex 54.84 -3.5 4.28612e-016
      vertex 54.84 -11.145 1.36482e-015
    endloop
  endfacet
  facet normal -0 1.22461e-016 1
    outer loop
      vertex -2 -16.145 1.97713e-015
      vertex -1.5 -52.435 6.42122e-015
      vertex -1.5 -16.145 1.97713e-015
    endloop
  endfacet
  facet normal 0 1.22461e-016 1
    outer loop
      vertex -1.5 -52.435 6.42122e-015
      vertex -2 -16.145 1.97713e-015
      vertex -2 -52.435 6.42122e-015
    endloop
  endfacet
  facet normal 0 1.22461e-016 1
    outer loop
      vertex -1.5 -57.435 7.03353e-015
      vertex -2 -57.435 7.03353e-015
      vertex -1.5 -65.08 7.96974e-015
    endloop
  endfacet
  facet normal -0 1.22461e-016 1
    outer loop
      vertex 3.5 -70.08 8.58204e-015
      vertex 19 -75.58 9.25557e-015
      vertex 19 -70.08 8.58204e-015
    endloop
  endfacet
  facet normal 3.34646e-022 1.2246e-016 1
    outer loop
      vertex -2 -75.58 9.25557e-015
      vertex 3.5 -70.08 8.58204e-015
      vertex 2.52455 -69.9839 8.57028e-015
    endloop
  endfacet
  facet normal 2.03222e-022 1.2246e-016 1
    outer loop
      vertex -2 -75.58 9.25557e-015
      vertex 2.52455 -69.9839 8.57028e-015
      vertex 1.58658 -69.6994 8.53543e-015
    endloop
  endfacet
  facet normal 0 1.22461e-016 1
    outer loop
      vertex 3.5 -70.08 8.58204e-015
      vertex -2 -75.58 9.25557e-015
      vertex 19 -75.58 9.25557e-015
    endloop
  endfacet
  facet normal -4.56688e-022 1.22461e-016 1
    outer loop
      vertex 0.722149 -69.2374 8.47885e-015
      vertex -2 -75.58 9.25557e-015
      vertex 1.58658 -69.6994 8.53543e-015
    endloop
  endfacet
  facet normal 1.77858e-023 1.22461e-016 1
    outer loop
      vertex -0.0355339 -68.6155 8.4027e-015
      vertex -2 -75.58 9.25557e-015
      vertex 0.722149 -69.2374 8.47885e-015
    endloop
  endfacet
  facet normal 1.71753e-022 1.2246e-016 1
    outer loop
      vertex -7 -70.58 8.64327e-015
      vertex -0.0355339 -68.6155 8.4027e-015
      vertex -0.657348 -67.8578 8.30992e-015
    endloop
  endfacet
  facet normal -3.40227e-022 1.22461e-016 1
    outer loop
      vertex -7 -70.58 8.64327e-015
      vertex -0.657348 -67.8578 8.30992e-015
      vertex -1.1194 -66.9934 8.20406e-015
    endloop
  endfacet
  facet normal 1.01031e-022 1.2246e-016 1
    outer loop
      vertex -7 -70.58 8.64327e-015
      vertex -1.1194 -66.9934 8.20406e-015
      vertex -1.40393 -66.0555 8.08919e-015
    endloop
  endfacet
  facet normal -4.28442e-022 1.22461e-016 1
    outer loop
      vertex -7 -70.58 8.64327e-015
      vertex -1.40393 -66.0555 8.08919e-015
      vertex -1.5 -65.08 7.96974e-015
    endloop
  endfacet
  facet normal 6.63166e-023 1.22461e-016 1
    outer loop
      vertex -7 -70.58 8.64327e-015
      vertex -1.5 -65.08 7.96974e-015
      vertex -2 -57.435 7.03353e-015
    endloop
  endfacet
  facet normal 0 1.22461e-016 1
    outer loop
      vertex -7 -70.58 8.64327e-015
      vertex -2 -52.435 6.42122e-015
      vertex -7 2 -2.44921e-016
    endloop
  endfacet
  facet normal -9.34764e-024 1.22461e-016 1
    outer loop
      vertex -7 2 -2.44921e-016
      vertex -2 7 -8.57224e-016
      vertex -2.97545 6.90393 -8.45459e-016
    endloop
  endfacet
  facet normal -3.53658e-022 1.22461e-016 1
    outer loop
      vertex -2 -52.435 6.42122e-015
      vertex -7 -70.58 8.64327e-015
      vertex -2 -57.435 7.03353e-015
    endloop
  endfacet
  facet normal 4.3209e-023 1.22461e-016 1
    outer loop
      vertex -7 2 -2.44921e-016
      vertex -2.97545 6.90393 -8.45459e-016
      vertex -3.91342 6.6194 -8.10616e-016
    endloop
  endfacet
  facet normal -1.53029e-022 1.22461e-016 1
    outer loop
      vertex -0.0355339 -68.6155 8.4027e-015
      vertex -7 -70.58 8.64327e-015
      vertex -6.90393 -71.5555 8.76273e-015
    endloop
  endfacet
  facet normal -2.06617e-023 1.22461e-016 1
    outer loop
      vertex -7 2 -2.44921e-016
      vertex -3.91342 6.6194 -8.10616e-016
      vertex -4.77785 6.15735 -7.54033e-016
    endloop
  endfacet
  facet normal 3.5532e-022 1.22461e-016 1
    outer loop
      vertex -0.0355339 -68.6155 8.4027e-015
      vertex -2.97545 -75.4839 9.24381e-015
      vertex -2 -75.58 9.25557e-015
    endloop
  endfacet
  facet normal -6.79637e-023 1.22461e-016 1
    outer loop
      vertex -7 2 -2.44921e-016
      vertex -4.77785 6.15735 -7.54033e-016
      vertex -5.53553 5.53553 -6.77885e-016
    endloop
  endfacet
  facet normal 2.48527e-022 1.22461e-016 1
    outer loop
      vertex -0.0355339 -68.6155 8.4027e-015
      vertex -3.91342 -75.1994 9.20897e-015
      vertex -2.97545 -75.4839 9.24381e-015
    endloop
  endfacet
  facet normal -1.07929e-023 1.22461e-016 1
    outer loop
      vertex -7 2 -2.44921e-016
      vertex -5.53553 5.53553 -6.77885e-016
      vertex -6.15735 4.77785 -5.85099e-016
    endloop
  endfacet
  facet normal -3.90735e-022 1.22461e-016 1
    outer loop
      vertex -0.0355339 -68.6155 8.4027e-015
      vertex -4.77785 -74.7374 9.15238e-015
      vertex -3.91342 -75.1994 9.20897e-015
    endloop
  endfacet
  facet normal -6.30604e-023 1.22461e-016 1
    outer loop
      vertex -7 2 -2.44921e-016
      vertex -6.15735 4.77785 -5.85099e-016
      vertex -6.6194 3.91342 -4.7924e-016
    endloop
  endfacet
  facet normal 2.30855e-023 1.22461e-016 1
    outer loop
      vertex -0.0355339 -68.6155 8.4027e-015
      vertex -5.53553 -74.1155 9.07624e-015
      vertex -4.77785 -74.7374 9.15238e-015
    endloop
  endfacet
  facet normal 1.08461e-022 1.22461e-016 1
    outer loop
      vertex -7 2 -2.44921e-016
      vertex -6.6194 3.91342 -4.7924e-016
      vertex -6.90393 2.97545 -3.64376e-016
    endloop
  endfacet
  facet normal 4.59613e-022 1.2246e-016 1
    outer loop
      vertex -0.0355339 -68.6155 8.4027e-015
      vertex -6.15735 -73.3578 8.98345e-015
      vertex -5.53553 -74.1155 9.07624e-015
    endloop
  endfacet
  facet normal -2.98689e-022 1.22461e-016 1
    outer loop
      vertex -0.0355339 -68.6155 8.4027e-015
      vertex -6.6194 -72.4934 8.87759e-015
      vertex -6.15735 -73.3578 8.98345e-015
    endloop
  endfacet
  facet normal 1.34537e-022 1.2246e-016 1
    outer loop
      vertex -0.0355339 -68.6155 8.4027e-015
      vertex -6.90393 -71.5555 8.76273e-015
      vertex -6.6194 -72.4934 8.87759e-015
    endloop
  endfacet
  facet normal -1 0 0
    outer loop
      vertex -2 -57.435 7.03353e-015
      vertex -2 -52.435 7
      vertex -2 -52.435 6.42122e-015
    endloop
  endfacet
  facet normal -1 -0 0
    outer loop
      vertex -2 -52.435 7
      vertex -2 -57.435 7.03353e-015
      vertex -2 -57.435 7
    endloop
  endfacet
  facet normal 0 1 0
    outer loop
      vertex 52.1025 -52.435 2.5
      vertex 55.34 -52.435 7
      vertex 53.09 -52.435 2.5
    endloop
  endfacet
  facet normal 0 1 0
    outer loop
      vertex 55.34 -52.435 7
      vertex 52.1025 -52.435 2.5
      vertex 52.89 -52.435 10
    endloop
  endfacet
  facet normal 0 1 0
    outer loop
      vertex 55.34 -52.435 7
      vertex 55.64 -52.435 10
      vertex 56.84 -52.435 7.25
    endloop
  endfacet
  facet normal 0 1 0
    outer loop
      vertex 55.34 -52.435 7
      vertex 56.84 -52.435 7.25
      vertex 56.59 -52.435 7
    endloop
  endfacet
  facet normal 0 1 0
    outer loop
      vertex 55.64 -52.435 10
      vertex 55.34 -52.435 7
      vertex 52.89 -52.435 10
    endloop
  endfacet
  facet normal 0 1 -0
    outer loop
      vertex 55.34 -52.435 6.42122e-015
      vertex 54.84 -52.435 2.5
      vertex 55.34 -52.435 7
    endloop
  endfacet
  facet normal 0 1 0
    outer loop
      vertex 54.84 -52.435 2.5
      vertex 55.34 -52.435 6.42122e-015
      vertex 54.84 -52.435 6.42122e-015
    endloop
  endfacet
  facet normal 0 1 0
    outer loop
      vertex 55.34 -52.435 7
      vertex 54.84 -52.435 2.5
      vertex 53.09 -52.435 2.5
    endloop
  endfacet
  facet normal 5.51853e-007 -1 4.50682e-007
    outer loop
      vertex 52.1025 -57.435 2.5
      vertex 55.34 -57.435 7
      vertex 52.89 -57.435 10
    endloop
  endfacet
  facet normal 0 -1 8.47711e-007
    outer loop
      vertex 55.34 -57.435 7
      vertex 52.1025 -57.435 2.5
      vertex 53.09 -57.435 2.5
    endloop
  endfacet
  facet normal 0 -1 0
    outer loop
      vertex 55.34 -57.435 7
      vertex 55.64 -57.435 10
      vertex 52.89 -57.435 10
    endloop
  endfacet
  facet normal 0 -1 -0
    outer loop
      vertex 55.64 -57.435 10
      vertex 55.34 -57.435 7
      vertex 56.84 -57.435 7.25
    endloop
  endfacet
  facet normal 0 -1 0
    outer loop
      vertex 56.84 -57.435 7.25
      vertex 55.34 -57.435 7
      vertex 56.59 -57.435 7
    endloop
  endfacet
  facet normal 0 -1 8.47711e-007
    outer loop
      vertex 54.84 -57.435 2.5
      vertex 55.34 -57.435 7
      vertex 53.09 -57.435 2.5
    endloop
  endfacet
  facet normal 0 -1 0
    outer loop
      vertex 55.34 -57.435 7.03353e-015
      vertex 54.84 -57.435 2.5
      vertex 54.84 -57.435 7.03353e-015
    endloop
  endfacet
  facet normal 2.72478e-006 -1 5.44957e-007
    outer loop
      vertex 54.84 -57.435 2.5
      vertex 55.34 -57.435 7.03353e-015
      vertex 55.34 -57.435 7
    endloop
  endfacet
  facet normal 0 0 -1
    outer loop
      vertex 55.34 -57.435 7
      vertex 56.59 -52.435 7
      vertex 56.59 -57.435 7
    endloop
  endfacet
  facet normal -0 0 -1
    outer loop
      vertex 56.59 -52.435 7
      vertex 55.34 -57.435 7
      vertex 55.34 -52.435 7
    endloop
  endfacet
  facet normal 0.707107 0 -0.707107
    outer loop
      vertex 56.84 -57.435 7.25
      vertex 56.59 -52.435 7
      vertex 56.84 -52.435 7.25
    endloop
  endfacet
  facet normal 0.707107 0 -0.707107
    outer loop
      vertex 56.59 -52.435 7
      vertex 56.84 -57.435 7.25
      vertex 56.59 -57.435 7
    endloop
  endfacet
  facet normal 0.916538 -0 0.399948
    outer loop
      vertex 55.64 -57.435 10
      vertex 56.84 -52.435 7.25
      vertex 55.64 -52.435 10
    endloop
  endfacet
  facet normal 0.916538 0 0.399948
    outer loop
      vertex 56.84 -52.435 7.25
      vertex 55.64 -57.435 10
      vertex 56.84 -57.435 7.25
    endloop
  endfacet
  facet normal -0 0 1
    outer loop
      vertex 52.89 -52.435 10
      vertex 55.64 -57.435 10
      vertex 55.64 -52.435 10
    endloop
  endfacet
  facet normal 0 0 1
    outer loop
      vertex 55.64 -57.435 10
      vertex 52.89 -52.435 10
      vertex 52.89 -57.435 10
    endloop
  endfacet
  facet normal -0.994533 0 0.104425
    outer loop
      vertex 52.1025 -52.435 2.5
      vertex 52.89 -57.435 10
      vertex 52.89 -52.435 10
    endloop
  endfacet
  facet normal -0.994533 0 0.104425
    outer loop
      vertex 52.89 -57.435 10
      vertex 52.1025 -52.435 2.5
      vertex 52.1025 -57.435 2.5
    endloop
  endfacet
  facet normal 1 -0 0
    outer loop
      vertex 55.34 -57.435 7
      vertex 55.34 -52.435 6.42122e-015
      vertex 55.34 -52.435 7
    endloop
  endfacet
  facet normal 1 0 0
    outer loop
      vertex 55.34 -52.435 6.42122e-015
      vertex 55.34 -57.435 7
      vertex 55.34 -57.435 7.03353e-015
    endloop
  endfacet
  facet normal 0 -1 0
    outer loop
      vertex -2 -16.145 7
      vertex -2.29999 -16.145 10
      vertex -3.5 -16.145 7.25
    endloop
  endfacet
  facet normal 0 -1 0
    outer loop
      vertex -2 -16.145 7
      vertex -3.5 -16.145 7.25
      vertex -3.25 -16.145 7
    endloop
  endfacet
  facet normal 0 -1 0
    outer loop
      vertex -2.29999 -16.145 10
      vertex -2 -16.145 7
      vertex 0.450012 -16.145 10
    endloop
  endfacet
  facet normal -0 -1 -4.23855e-007
    outer loop
      vertex 1.2375 -16.145 2.5
      vertex -2 -16.145 7
      vertex 0.25 -16.145 2.5
    endloop
  endfacet
  facet normal 2.75927e-007 -1 -2.25341e-007
    outer loop
      vertex -2 -16.145 7
      vertex 1.2375 -16.145 2.5
      vertex 0.450012 -16.145 10
    endloop
  endfacet
  facet normal 1.36239e-006 -1 -2.72478e-007
    outer loop
      vertex -2 -16.145 1.97713e-015
      vertex -1.5 -16.145 2.5
      vertex -2 -16.145 7
    endloop
  endfacet
  facet normal 0 -1 -0
    outer loop
      vertex -1.5 -16.145 2.5
      vertex -2 -16.145 1.97713e-015
      vertex -1.5 -16.145 1.97713e-015
    endloop
  endfacet
  facet normal 0 -1 -4.23855e-007
    outer loop
      vertex -2 -16.145 7
      vertex -1.5 -16.145 2.5
      vertex 0.25 -16.145 2.5
    endloop
  endfacet
  facet normal -1.37963e-007 1 1.12671e-007
    outer loop
      vertex 1.2375 -11.145 2.5
      vertex -2 -11.145 7
      vertex 0.450012 -11.145 10
    endloop
  endfacet
  facet normal 0 1 2.11928e-007
    outer loop
      vertex -2 -11.145 7
      vertex 1.2375 -11.145 2.5
      vertex 0.25 -11.145 2.5
    endloop
  endfacet
  facet normal 0 1 -0
    outer loop
      vertex -2 -11.145 7
      vertex -2.29999 -11.145 10
      vertex 0.450012 -11.145 10
    endloop
  endfacet
  facet normal 0 1 0
    outer loop
      vertex -2.29999 -11.145 10
      vertex -2 -11.145 7
      vertex -3.5 -11.145 7.25
    endloop
  endfacet
  facet normal 0 1 0
    outer loop
      vertex -3.5 -11.145 7.25
      vertex -2 -11.145 7
      vertex -3.25 -11.145 7
    endloop
  endfacet
  facet normal -0 1 2.11928e-007
    outer loop
      vertex -1.5 -11.145 2.5
      vertex -2 -11.145 7
      vertex 0.25 -11.145 2.5
    endloop
  endfacet
  facet normal 0 1 0
    outer loop
      vertex -2 -11.145 1.36482e-015
      vertex -1.5 -11.145 2.5
      vertex -1.5 -11.145 1.36482e-015
    endloop
  endfacet
  facet normal -6.81197e-007 1 1.36239e-007
    outer loop
      vertex -1.5 -11.145 2.5
      vertex -2 -11.145 1.36482e-015
      vertex -2 -11.145 7
    endloop
  endfacet
  facet normal 0 0 -1
    outer loop
      vertex -3.25 -16.145 7
      vertex -2 -11.145 7
      vertex -2 -16.145 7
    endloop
  endfacet
  facet normal -0 0 -1
    outer loop
      vertex -2 -11.145 7
      vertex -3.25 -16.145 7
      vertex -3.25 -11.145 7
    endloop
  endfacet
  facet normal -0.707107 0 -0.707107
    outer loop
      vertex -3.25 -16.145 7
      vertex -3.5 -11.145 7.25
      vertex -3.25 -11.145 7
    endloop
  endfacet
  facet normal -0.707107 -0 -0.707107
    outer loop
      vertex -3.5 -11.145 7.25
      vertex -3.25 -16.145 7
      vertex -3.5 -16.145 7.25
    endloop
  endfacet
  facet normal -0.916538 0 0.399948
    outer loop
      vertex -3.5 -16.145 7.25
      vertex -2.29999 -11.145 10
      vertex -3.5 -11.145 7.25
    endloop
  endfacet
  facet normal -0.916538 0 0.399948
    outer loop
      vertex -2.29999 -11.145 10
      vertex -3.5 -16.145 7.25
      vertex -2.29999 -16.145 10
    endloop
  endfacet
  facet normal -0 0 1
    outer loop
      vertex -2.29999 -11.145 10
      vertex 0.450012 -16.145 10
      vertex 0.450012 -11.145 10
    endloop
  endfacet
  facet normal 0 0 1
    outer loop
      vertex 0.450012 -16.145 10
      vertex -2.29999 -11.145 10
      vertex -2.29999 -16.145 10
    endloop
  endfacet
  facet normal 0.994533 0 0.104425
    outer loop
      vertex 0.450012 -11.145 10
      vertex 1.2375 -16.145 2.5
      vertex 1.2375 -11.145 2.5
    endloop
  endfacet
  facet normal 0.994533 0 0.104425
    outer loop
      vertex 1.2375 -16.145 2.5
      vertex 0.450012 -11.145 10
      vertex 0.450012 -16.145 10
    endloop
  endfacet
  facet normal -1 0 0
    outer loop
      vertex -2 -16.145 1.97713e-015
      vertex -2 -11.145 7
      vertex -2 -11.145 1.36482e-015
    endloop
  endfacet
  facet normal -1 -0 0
    outer loop
      vertex -2 -11.145 7
      vertex -2 -16.145 1.97713e-015
      vertex -2 -16.145 7
    endloop
  endfacet
  facet normal 0 1 0
    outer loop
      vertex 52.1025 -11.145 2.5
      vertex 55.34 -11.145 7
      vertex 53.09 -11.145 2.5
    endloop
  endfacet
  facet normal 0 1 0
    outer loop
      vertex 55.34 -11.145 7
      vertex 52.1025 -11.145 2.5
      vertex 52.89 -11.145 10
    endloop
  endfacet
  facet normal 0 1 0
    outer loop
      vertex 55.34 -11.145 7
      vertex 55.64 -11.145 10
      vertex 56.84 -11.145 7.25
    endloop
  endfacet
  facet normal 0 1 0
    outer loop
      vertex 55.34 -11.145 7
      vertex 56.84 -11.145 7.25
      vertex 56.59 -11.145 7
    endloop
  endfacet
  facet normal 0 1 0
    outer loop
      vertex 55.64 -11.145 10
      vertex 55.34 -11.145 7
      vertex 52.89 -11.145 10
    endloop
  endfacet
  facet normal 1.22615e-006 1 -1.36239e-007
    outer loop
      vertex 55.34 -11.145 1.36482e-015
      vertex 54.84 -11.145 2.5
      vertex 55.34 -11.145 7
    endloop
  endfacet
  facet normal 0 1 -3.8147e-007
    outer loop
      vertex 54.84 -11.145 2.5
      vertex 55.34 -11.145 1.36482e-015
      vertex 54.84 -11.145 1.36482e-015
    endloop
  endfacet
  facet normal 0 1 0
    outer loop
      vertex 55.34 -11.145 7
      vertex 54.84 -11.145 2.5
      vertex 53.09 -11.145 2.5
    endloop
  endfacet
  facet normal 2.75927e-007 -1 2.25341e-007
    outer loop
      vertex 52.1025 -16.145 2.5
      vertex 55.34 -16.145 7
      vertex 52.89 -16.145 10
    endloop
  endfacet
  facet normal 0 -1 4.23855e-007
    outer loop
      vertex 55.34 -16.145 7
      vertex 52.1025 -16.145 2.5
      vertex 53.09 -16.145 2.5
    endloop
  endfacet
  facet normal 0 -1 0
    outer loop
      vertex 55.34 -16.145 7
      vertex 55.64 -16.145 10
      vertex 52.89 -16.145 10
    endloop
  endfacet
  facet normal 0 -1 -0
    outer loop
      vertex 55.64 -16.145 10
      vertex 55.34 -16.145 7
      vertex 56.84 -16.145 7.25
    endloop
  endfacet
  facet normal 0 -1 0
    outer loop
      vertex 56.84 -16.145 7.25
      vertex 55.34 -16.145 7
      vertex 56.59 -16.145 7
    endloop
  endfacet
  facet normal 0 -1 4.23855e-007
    outer loop
      vertex 54.84 -16.145 2.5
      vertex 55.34 -16.145 7
      vertex 53.09 -16.145 2.5
    endloop
  endfacet
  facet normal 0 -1 0
    outer loop
      vertex 55.34 -16.145 1.97713e-015
      vertex 54.84 -16.145 2.5
      vertex 54.84 -16.145 1.97713e-015
    endloop
  endfacet
  facet normal 1.36239e-006 -1 2.72478e-007
    outer loop
      vertex 54.84 -16.145 2.5
      vertex 55.34 -16.145 1.97713e-015
      vertex 55.34 -16.145 7
    endloop
  endfacet
  facet normal 0 0 -1
    outer loop
      vertex 55.34 -16.145 7
      vertex 56.59 -11.145 7
      vertex 56.59 -16.145 7
    endloop
  endfacet
  facet normal -0 0 -1
    outer loop
      vertex 56.59 -11.145 7
      vertex 55.34 -16.145 7
      vertex 55.34 -11.145 7
    endloop
  endfacet
  facet normal 0.707107 0 -0.707107
    outer loop
      vertex 56.84 -16.145 7.25
      vertex 56.59 -11.145 7
      vertex 56.84 -11.145 7.25
    endloop
  endfacet
  facet normal 0.707107 0 -0.707107
    outer loop
      vertex 56.59 -11.145 7
      vertex 56.84 -16.145 7.25
      vertex 56.59 -16.145 7
    endloop
  endfacet
  facet normal 0.916538 -0 0.399948
    outer loop
      vertex 55.64 -16.145 10
      vertex 56.84 -11.145 7.25
      vertex 55.64 -11.145 10
    endloop
  endfacet
  facet normal 0.916538 0 0.399948
    outer loop
      vertex 56.84 -11.145 7.25
      vertex 55.64 -16.145 10
      vertex 56.84 -16.145 7.25
    endloop
  endfacet
  facet normal -0 0 1
    outer loop
      vertex 52.89 -11.145 10
      vertex 55.64 -16.145 10
      vertex 55.64 -11.145 10
    endloop
  endfacet
  facet normal 0 0 1
    outer loop
      vertex 55.64 -16.145 10
      vertex 52.89 -11.145 10
      vertex 52.89 -16.145 10
    endloop
  endfacet
  facet normal -0.994533 0 0.104425
    outer loop
      vertex 52.1025 -11.145 2.5
      vertex 52.89 -16.145 10
      vertex 52.89 -11.145 10
    endloop
  endfacet
  facet normal -0.994533 0 0.104425
    outer loop
      vertex 52.89 -16.145 10
      vertex 52.1025 -11.145 2.5
      vertex 52.1025 -16.145 2.5
    endloop
  endfacet
  facet normal 1 -0 0
    outer loop
      vertex 55.34 -16.145 7
      vertex 55.34 -11.145 1.36482e-015
      vertex 55.34 -11.145 7
    endloop
  endfacet
  facet normal 1 0 0
    outer loop
      vertex 55.34 -11.145 1.36482e-015
      vertex 55.34 -16.145 7
      vertex 55.34 -16.145 1.97713e-015
    endloop
  endfacet
  facet normal 0.995185 -0.098017 0
    outer loop
      vertex 60.2439 -71.5555 8.76273e-015
      vertex 60.34 -70.58 -5
      vertex 60.34 -70.58 8.64327e-015
    endloop
  endfacet
  facet normal 0.995185 -0.098017 0
    outer loop
      vertex 60.34 -70.58 -5
      vertex 60.2439 -71.5555 8.76273e-015
      vertex 60.2439 -71.5555 -5
    endloop
  endfacet
  facet normal -1 0 0
    outer loop
      vertex -7 -70.58 -5
      vertex -7 2 -2.44921e-016
      vertex -7 2 -5
    endloop
  endfacet
  facet normal -1 -0 0
    outer loop
      vertex -7 2 -2.44921e-016
      vertex -7 -70.58 -5
      vertex -7 -70.58 8.64327e-015
    endloop
  endfacet
  facet normal -0.634396 -0.773008 0
    outer loop
      vertex -5.53553 -74.1155 -5
      vertex -4.77785 -74.7374 9.15238e-015
      vertex -5.53553 -74.1155 9.07624e-015
    endloop
  endfacet
  facet normal -0.634396 -0.773008 -0
    outer loop
      vertex -4.77785 -74.7374 9.15238e-015
      vertex -5.53553 -74.1155 -5
      vertex -4.77785 -74.7374 -5
    endloop
  endfacet
  facet normal 0 0 -1
    outer loop
      vertex 19 -75.58 -5
      vertex -2 -75.58 -5
      vertex 19 -64 -5
    endloop
  endfacet
  facet normal 0 0 -1
    outer loop
      vertex 55.34 -75.58 -5
      vertex 60.34 -70.58 -5
      vertex 60.2439 -71.5555 -5
    endloop
  endfacet
  facet normal 0 0 -1
    outer loop
      vertex 60.34 -70.58 -5
      vertex 35 -64 -5
      vertex 60.34 2 -5
    endloop
  endfacet
  facet normal 0 0 -1
    outer loop
      vertex 55.34 -75.58 -5
      vertex 60.2439 -71.5555 -5
      vertex 59.9594 -72.4934 -5
    endloop
  endfacet
  facet normal 0 -0 -1
    outer loop
      vertex 55.34 7 -5
      vertex 60.34 2 -5
      vertex 35 -64 -5
    endloop
  endfacet
  facet normal 0 0 -1
    outer loop
      vertex 55.34 -75.58 -5
      vertex 59.9594 -72.4934 -5
      vertex 59.4973 -73.3578 -5
    endloop
  endfacet
  facet normal 0 0 -1
    outer loop
      vertex 60.34 2 -5
      vertex 55.34 7 -5
      vertex 60.2439 2.97545 -5
    endloop
  endfacet
  facet normal 0 0 -1
    outer loop
      vertex 55.34 -75.58 -5
      vertex 59.4973 -73.3578 -5
      vertex 58.8755 -74.1155 -5
    endloop
  endfacet
  facet normal 0 0 -1
    outer loop
      vertex 60.2439 2.97545 -5
      vertex 55.34 7 -5
      vertex 59.9594 3.91342 -5
    endloop
  endfacet
  facet normal 0 0 -1
    outer loop
      vertex 55.34 -75.58 -5
      vertex 58.8755 -74.1155 -5
      vertex 58.1179 -74.7374 -5
    endloop
  endfacet
  facet normal 0 0 -1
    outer loop
      vertex 59.9594 3.91342 -5
      vertex 55.34 7 -5
      vertex 59.4973 4.77785 -5
    endloop
  endfacet
  facet normal 0 0 -1
    outer loop
      vertex 55.34 -75.58 -5
      vertex 58.1179 -74.7374 -5
      vertex 57.2534 -75.1994 -5
    endloop
  endfacet
  facet normal 0 0 -1
    outer loop
      vertex 59.4973 4.77785 -5
      vertex 55.34 7 -5
      vertex 58.8755 5.53553 -5
    endloop
  endfacet
  facet normal 0 0 -1
    outer loop
      vertex 55.34 -75.58 -5
      vertex 57.2534 -75.1994 -5
      vertex 56.3155 -75.4839 -5
    endloop
  endfacet
  facet normal 0 0 -1
    outer loop
      vertex 58.8755 5.53553 -5
      vertex 55.34 7 -5
      vertex 58.1179 6.15735 -5
    endloop
  endfacet
  facet normal -0 0 -1
    outer loop
      vertex 60.34 -70.58 -5
      vertex 55.34 -75.58 -5
      vertex 35 -64 -5
    endloop
  endfacet
  facet normal 0 0 -1
    outer loop
      vertex 58.1179 6.15735 -5
      vertex 55.34 7 -5
      vertex 57.2534 6.6194 -5
    endloop
  endfacet
  facet normal 0 0 -1
    outer loop
      vertex 35 -64 -5
      vertex 55.34 -75.58 -5
      vertex 35 -75.58 -5
    endloop
  endfacet
  facet normal 0 0 -1
    outer loop
      vertex 57.2534 6.6194 -5
      vertex 55.34 7 -5
      vertex 56.3155 6.90393 -5
    endloop
  endfacet
  facet normal 0 0 -1
    outer loop
      vertex 19 -64 -5
      vertex 55.34 7 -5
      vertex 35 -64 -5
    endloop
  endfacet
  facet normal 0 0 -1
    outer loop
      vertex -7 -70.58 -5
      vertex 19 -64 -5
      vertex -2 -75.58 -5
    endloop
  endfacet
  facet normal 0 0 -1
    outer loop
      vertex -7 2 -5
      vertex 19 -64 -5
      vertex -7 -70.58 -5
    endloop
  endfacet
  facet normal 0 0 -1
    outer loop
      vertex -7 -70.58 -5
      vertex -2 -75.58 -5
      vertex -2.97545 -75.4839 -5
    endloop
  endfacet
  facet normal 0 -0 -1
    outer loop
      vertex -2 7 -5
      vertex 19 -64 -5
      vertex -7 2 -5
    endloop
  endfacet
  facet normal 0 0 -1
    outer loop
      vertex -7 -70.58 -5
      vertex -2.97545 -75.4839 -5
      vertex -3.91342 -75.1994 -5
    endloop
  endfacet
  facet normal 0 0 -1
    outer loop
      vertex 19 -64 -5
      vertex -2 7 -5
      vertex 55.34 7 -5
    endloop
  endfacet
  facet normal 0 0 -1
    outer loop
      vertex -7 -70.58 -5
      vertex -3.91342 -75.1994 -5
      vertex -4.77785 -74.7374 -5
    endloop
  endfacet
  facet normal 0 0 -1
    outer loop
      vertex -2 7 -5
      vertex -7 2 -5
      vertex -2.97545 6.90393 -5
    endloop
  endfacet
  facet normal 0 0 -1
    outer loop
      vertex -7 -70.58 -5
      vertex -4.77785 -74.7374 -5
      vertex -5.53553 -74.1155 -5
    endloop
  endfacet
  facet normal 0 0 -1
    outer loop
      vertex -2.97545 6.90393 -5
      vertex -7 2 -5
      vertex -3.91342 6.6194 -5
    endloop
  endfacet
  facet normal 0 0 -1
    outer loop
      vertex -7 -70.58 -5
      vertex -5.53553 -74.1155 -5
      vertex -6.15735 -73.3578 -5
    endloop
  endfacet
  facet normal 0 0 -1
    outer loop
      vertex -3.91342 6.6194 -5
      vertex -7 2 -5
      vertex -4.77785 6.15735 -5
    endloop
  endfacet
  facet normal 0 0 -1
    outer loop
      vertex -7 -70.58 -5
      vertex -6.15735 -73.3578 -5
      vertex -6.6194 -72.4934 -5
    endloop
  endfacet
  facet normal 0 0 -1
    outer loop
      vertex -4.77785 6.15735 -5
      vertex -7 2 -5
      vertex -5.53553 5.53553 -5
    endloop
  endfacet
  facet normal 0 0 -1
    outer loop
      vertex -7 -70.58 -5
      vertex -6.6194 -72.4934 -5
      vertex -6.90393 -71.5555 -5
    endloop
  endfacet
  facet normal 0 0 -1
    outer loop
      vertex -5.53553 5.53553 -5
      vertex -7 2 -5
      vertex -6.15735 4.77785 -5
    endloop
  endfacet
  facet normal 0 0 -1
    outer loop
      vertex -6.15735 4.77785 -5
      vertex -7 2 -5
      vertex -6.6194 3.91342 -5
    endloop
  endfacet
  facet normal 0 0 -1
    outer loop
      vertex -6.6194 3.91342 -5
      vertex -7 2 -5
      vertex -6.90393 2.97545 -5
    endloop
  endfacet
  facet normal -0.0980177 0.995185 0
    outer loop
      vertex -2 7 -5
      vertex -2.97545 6.90393 -8.45459e-016
      vertex -2 7 -8.57224e-016
    endloop
  endfacet
  facet normal -0.0980177 0.995185 0
    outer loop
      vertex -2.97545 6.90393 -8.45459e-016
      vertex -2 7 -5
      vertex -2.97545 6.90393 -5
    endloop
  endfacet
  facet normal 0.0980205 -0.995184 0
    outer loop
      vertex 55.34 -75.58 -5
      vertex 56.3155 -75.4839 9.24381e-015
      vertex 55.34 -75.58 9.25557e-015
    endloop
  endfacet
  facet normal 0.0980205 -0.995184 0
    outer loop
      vertex 56.3155 -75.4839 9.24381e-015
      vertex 55.34 -75.58 -5
      vertex 56.3155 -75.4839 -5
    endloop
  endfacet
  facet normal 0 -1 0
    outer loop
      vertex 35 -75.58 -5
      vertex 55.34 -75.58 9.25557e-015
      vertex 35 -75.58 9.25557e-015
    endloop
  endfacet
  facet normal 0 -1 -0
    outer loop
      vertex 55.34 -75.58 9.25557e-015
      vertex 35 -75.58 -5
      vertex 55.34 -75.58 -5
    endloop
  endfacet
  facet normal 0 -1 0
    outer loop
      vertex -2 -75.58 -5
      vertex 19 -75.58 9.25557e-015
      vertex -2 -75.58 9.25557e-015
    endloop
  endfacet
  facet normal 0 -1 -0
    outer loop
      vertex 19 -75.58 9.25557e-015
      vertex -2 -75.58 -5
      vertex 19 -75.58 -5
    endloop
  endfacet
  facet normal -0.995185 -0.098018 0
    outer loop
      vertex -6.90393 -71.5555 -5
      vertex -7 -70.58 8.64327e-015
      vertex -7 -70.58 -5
    endloop
  endfacet
  facet normal -0.995185 -0.098018 0
    outer loop
      vertex -7 -70.58 8.64327e-015
      vertex -6.90393 -71.5555 -5
      vertex -6.90393 -71.5555 8.76273e-015
    endloop
  endfacet
  facet normal -0.881921 -0.471397 0
    outer loop
      vertex -6.15735 -73.3578 -5
      vertex -6.6194 -72.4934 8.87759e-015
      vertex -6.6194 -72.4934 -5
    endloop
  endfacet
  facet normal -0.881921 -0.471397 0
    outer loop
      vertex -6.6194 -72.4934 8.87759e-015
      vertex -6.15735 -73.3578 -5
      vertex -6.15735 -73.3578 8.98345e-015
    endloop
  endfacet
  facet normal 0.995185 0.0980167 0
    outer loop
      vertex 60.34 2 -2.44921e-016
      vertex 60.2439 2.97545 -5
      vertex 60.2439 2.97545 -3.64376e-016
    endloop
  endfacet
  facet normal 0.995185 0.0980167 0
    outer loop
      vertex 60.2439 2.97545 -5
      vertex 60.34 2 -2.44921e-016
      vertex 60.34 2 -5
    endloop
  endfacet
  facet normal 1 0 0
    outer loop
      vertex 60.34 -70.58 8.64327e-015
      vertex 60.34 2 -5
      vertex 60.34 2 -2.44921e-016
    endloop
  endfacet
  facet normal 1 0 0
    outer loop
      vertex 60.34 2 -5
      vertex 60.34 -70.58 8.64327e-015
      vertex 60.34 -70.58 -5
    endloop
  endfacet
  facet normal 0 1 -0
    outer loop
      vertex 55.34 7 -5
      vertex -2 7 -8.57224e-016
      vertex 55.34 7 -8.57224e-016
    endloop
  endfacet
  facet normal 0 1 0
    outer loop
      vertex -2 7 -8.57224e-016
      vertex 55.34 7 -5
      vertex -2 7 -5
    endloop
  endfacet
  facet normal -0.773011 0.634393 0
    outer loop
      vertex -6.15735 4.77785 -5
      vertex -5.53553 5.53553 -6.77885e-016
      vertex -5.53553 5.53553 -5
    endloop
  endfacet
  facet normal -0.773011 0.634393 0
    outer loop
      vertex -5.53553 5.53553 -6.77885e-016
      vertex -6.15735 4.77785 -5
      vertex -6.15735 4.77785 -5.85099e-016
    endloop
  endfacet
  facet normal 0.77301 -0.634394 0
    outer loop
      vertex 58.8755 -74.1155 9.07624e-015
      vertex 59.4973 -73.3578 -5
      vertex 59.4973 -73.3578 8.98345e-015
    endloop
  endfacet
  facet normal 0.77301 -0.634394 0
    outer loop
      vertex 59.4973 -73.3578 -5
      vertex 58.8755 -74.1155 9.07624e-015
      vertex 58.8755 -74.1155 -5
    endloop
  endfacet
  facet normal -0.95694 -0.290285 0
    outer loop
      vertex -6.6194 -72.4934 -5
      vertex -6.90393 -71.5555 8.76273e-015
      vertex -6.90393 -71.5555 -5
    endloop
  endfacet
  facet normal -0.95694 -0.290285 0
    outer loop
      vertex -6.90393 -71.5555 8.76273e-015
      vertex -6.6194 -72.4934 -5
      vertex -6.6194 -72.4934 8.87759e-015
    endloop
  endfacet
  facet normal -0.773011 -0.634393 0
    outer loop
      vertex -5.53553 -74.1155 -5
      vertex -6.15735 -73.3578 8.98345e-015
      vertex -6.15735 -73.3578 -5
    endloop
  endfacet
  facet normal -0.773011 -0.634393 0
    outer loop
      vertex -6.15735 -73.3578 8.98345e-015
      vertex -5.53553 -74.1155 -5
      vertex -5.53553 -74.1155 9.07624e-015
    endloop
  endfacet
  facet normal 0.77301 0.634394 0
    outer loop
      vertex 59.4973 4.77785 -5.85099e-016
      vertex 58.8755 5.53553 -5
      vertex 58.8755 5.53553 -6.77885e-016
    endloop
  endfacet
  facet normal 0.77301 0.634394 0
    outer loop
      vertex 58.8755 5.53553 -5
      vertex 59.4973 4.77785 -5.85099e-016
      vertex 59.4973 4.77785 -5
    endloop
  endfacet
  facet normal 0.95694 0.290286 0
    outer loop
      vertex 60.2439 2.97545 -3.64376e-016
      vertex 59.9594 3.91342 -5
      vertex 59.9594 3.91342 -4.7924e-016
    endloop
  endfacet
  facet normal 0.95694 0.290286 0
    outer loop
      vertex 59.9594 3.91342 -5
      vertex 60.2439 2.97545 -3.64376e-016
      vertex 60.2439 2.97545 -5
    endloop
  endfacet
  facet normal 0.881922 -0.471395 0
    outer loop
      vertex 59.4973 -73.3578 8.98345e-015
      vertex 59.9594 -72.4934 -5
      vertex 59.9594 -72.4934 8.87759e-015
    endloop
  endfacet
  facet normal 0.881922 -0.471395 0
    outer loop
      vertex 59.9594 -72.4934 -5
      vertex 59.4973 -73.3578 8.98345e-015
      vertex 59.4973 -73.3578 -5
    endloop
  endfacet
  facet normal 0.95694 -0.290286 0
    outer loop
      vertex 59.9594 -72.4934 8.87759e-015
      vertex 60.2439 -71.5555 -5
      vertex 60.2439 -71.5555 8.76273e-015
    endloop
  endfacet
  facet normal 0.95694 -0.290286 0
    outer loop
      vertex 60.2439 -71.5555 -5
      vertex 59.9594 -72.4934 8.87759e-015
      vertex 59.9594 -72.4934 -5
    endloop
  endfacet
  facet normal 0.471392 -0.881924 0
    outer loop
      vertex 57.2534 -75.1994 -5
      vertex 58.1179 -74.7374 9.15238e-015
      vertex 57.2534 -75.1994 9.20897e-015
    endloop
  endfacet
  facet normal 0.471392 -0.881924 0
    outer loop
      vertex 58.1179 -74.7374 9.15238e-015
      vertex 57.2534 -75.1994 -5
      vertex 58.1179 -74.7374 -5
    endloop
  endfacet
  facet normal 0.290286 -0.95694 0
    outer loop
      vertex 56.3155 -75.4839 -5
      vertex 57.2534 -75.1994 9.20897e-015
      vertex 56.3155 -75.4839 9.24381e-015
    endloop
  endfacet
  facet normal 0.290286 -0.95694 0
    outer loop
      vertex 57.2534 -75.1994 9.20897e-015
      vertex 56.3155 -75.4839 -5
      vertex 57.2534 -75.1994 -5
    endloop
  endfacet
  facet normal 0.634396 -0.773008 0
    outer loop
      vertex 58.1179 -74.7374 -5
      vertex 58.8755 -74.1155 9.07624e-015
      vertex 58.1179 -74.7374 9.15238e-015
    endloop
  endfacet
  facet normal 0.634396 -0.773008 0
    outer loop
      vertex 58.8755 -74.1155 9.07624e-015
      vertex 58.1179 -74.7374 -5
      vertex 58.8755 -74.1155 -5
    endloop
  endfacet
  facet normal -0.290286 -0.95694 0
    outer loop
      vertex -3.91342 -75.1994 -5
      vertex -2.97545 -75.4839 9.24381e-015
      vertex -3.91342 -75.1994 9.20897e-015
    endloop
  endfacet
  facet normal -0.290286 -0.95694 -0
    outer loop
      vertex -2.97545 -75.4839 9.24381e-015
      vertex -3.91342 -75.1994 -5
      vertex -2.97545 -75.4839 -5
    endloop
  endfacet
  facet normal -0.0980206 -0.995184 0
    outer loop
      vertex -2.97545 -75.4839 -5
      vertex -2 -75.58 9.25557e-015
      vertex -2.97545 -75.4839 9.24381e-015
    endloop
  endfacet
  facet normal -0.0980206 -0.995184 -0
    outer loop
      vertex -2 -75.58 9.25557e-015
      vertex -2.97545 -75.4839 -5
      vertex -2 -75.58 -5
    endloop
  endfacet
  facet normal -0.471392 -0.881924 0
    outer loop
      vertex -4.77785 -74.7374 -5
      vertex -3.91342 -75.1994 9.20897e-015
      vertex -4.77785 -74.7374 9.15238e-015
    endloop
  endfacet
  facet normal -0.471392 -0.881924 -0
    outer loop
      vertex -3.91342 -75.1994 9.20897e-015
      vertex -4.77785 -74.7374 -5
      vertex -3.91342 -75.1994 -5
    endloop
  endfacet
  facet normal 0.881922 0.471395 0
    outer loop
      vertex 59.9594 3.91342 -4.7924e-016
      vertex 59.4973 4.77785 -5
      vertex 59.4973 4.77785 -5.85099e-016
    endloop
  endfacet
  facet normal 0.881922 0.471395 0
    outer loop
      vertex 59.4973 4.77785 -5
      vertex 59.9594 3.91342 -4.7924e-016
      vertex 59.9594 3.91342 -5
    endloop
  endfacet
  facet normal 0.0980176 0.995185 -0
    outer loop
      vertex 56.3155 6.90393 -5
      vertex 55.34 7 -8.57224e-016
      vertex 56.3155 6.90393 -8.45459e-016
    endloop
  endfacet
  facet normal 0.0980176 0.995185 0
    outer loop
      vertex 55.34 7 -8.57224e-016
      vertex 56.3155 6.90393 -5
      vertex 55.34 7 -5
    endloop
  endfacet
  facet normal 0.471397 0.881921 -0
    outer loop
      vertex 58.1179 6.15735 -5
      vertex 57.2534 6.6194 -8.10616e-016
      vertex 58.1179 6.15735 -7.54033e-016
    endloop
  endfacet
  facet normal 0.471397 0.881921 0
    outer loop
      vertex 57.2534 6.6194 -8.10616e-016
      vertex 58.1179 6.15735 -5
      vertex 57.2534 6.6194 -5
    endloop
  endfacet
  facet normal -0.634393 0.773011 0
    outer loop
      vertex -4.77785 6.15735 -5
      vertex -5.53553 5.53553 -6.77885e-016
      vertex -4.77785 6.15735 -7.54033e-016
    endloop
  endfacet
  facet normal -0.634393 0.773011 0
    outer loop
      vertex -5.53553 5.53553 -6.77885e-016
      vertex -4.77785 6.15735 -5
      vertex -5.53553 5.53553 -5
    endloop
  endfacet
  facet normal -0.290285 0.95694 0
    outer loop
      vertex -2.97545 6.90393 -5
      vertex -3.91342 6.6194 -8.10616e-016
      vertex -2.97545 6.90393 -8.45459e-016
    endloop
  endfacet
  facet normal -0.290285 0.95694 0
    outer loop
      vertex -3.91342 6.6194 -8.10616e-016
      vertex -2.97545 6.90393 -5
      vertex -3.91342 6.6194 -5
    endloop
  endfacet
  facet normal -0.881921 0.471397 0
    outer loop
      vertex -6.6194 3.91342 -5
      vertex -6.15735 4.77785 -5.85099e-016
      vertex -6.15735 4.77785 -5
    endloop
  endfacet
  facet normal -0.881921 0.471397 0
    outer loop
      vertex -6.15735 4.77785 -5.85099e-016
      vertex -6.6194 3.91342 -5
      vertex -6.6194 3.91342 -4.7924e-016
    endloop
  endfacet
  facet normal -0.995185 0.0980177 0
    outer loop
      vertex -7 2 -5
      vertex -6.90393 2.97545 -3.64376e-016
      vertex -6.90393 2.97545 -5
    endloop
  endfacet
  facet normal -0.995185 0.0980177 0
    outer loop
      vertex -6.90393 2.97545 -3.64376e-016
      vertex -7 2 -5
      vertex -7 2 -2.44921e-016
    endloop
  endfacet
  facet normal 0.290285 0.95694 -0
    outer loop
      vertex 57.2534 6.6194 -5
      vertex 56.3155 6.90393 -8.45459e-016
      vertex 57.2534 6.6194 -8.10616e-016
    endloop
  endfacet
  facet normal 0.290285 0.95694 0
    outer loop
      vertex 56.3155 6.90393 -8.45459e-016
      vertex 57.2534 6.6194 -5
      vertex 56.3155 6.90393 -5
    endloop
  endfacet
  facet normal 0.634393 0.773011 -0
    outer loop
      vertex 58.8755 5.53553 -5
      vertex 58.1179 6.15735 -7.54033e-016
      vertex 58.8755 5.53553 -6.77885e-016
    endloop
  endfacet
  facet normal 0.634393 0.773011 0
    outer loop
      vertex 58.1179 6.15735 -7.54033e-016
      vertex 58.8755 5.53553 -5
      vertex 58.1179 6.15735 -5
    endloop
  endfacet
  facet normal -0.471397 0.881921 0
    outer loop
      vertex -3.91342 6.6194 -5
      vertex -4.77785 6.15735 -7.54033e-016
      vertex -3.91342 6.6194 -8.10616e-016
    endloop
  endfacet
  facet normal -0.471397 0.881921 0
    outer loop
      vertex -4.77785 6.15735 -7.54033e-016
      vertex -3.91342 6.6194 -5
      vertex -4.77785 6.15735 -5
    endloop
  endfacet
  facet normal -0.95694 0.290285 0
    outer loop
      vertex -6.90393 2.97545 -5
      vertex -6.6194 3.91342 -4.7924e-016
      vertex -6.6194 3.91342 -5
    endloop
  endfacet
  facet normal -0.95694 0.290285 0
    outer loop
      vertex -6.6194 3.91342 -4.7924e-016
      vertex -6.90393 2.97545 -5
      vertex -6.90393 2.97545 -3.64376e-016
    endloop
  endfacet
  facet normal 0.995185 -0.098017 0
    outer loop
      vertex 54.7439 -66.0555 2.5
      vertex 54.84 -65.08 7.96974e-015
      vertex 54.84 -65.08 2.5
    endloop
  endfacet
  facet normal 0.995185 -0.098017 0
    outer loop
      vertex 54.84 -65.08 7.96974e-015
      vertex 54.7439 -66.0555 2.5
      vertex 54.7439 -66.0555 8.08919e-015
    endloop
  endfacet
  facet normal -1 0 0
    outer loop
      vertex -1.5 -11.145 1.36482e-015
      vertex -1.5 -3.5 2.5
      vertex -1.5 -3.5 4.28612e-016
    endloop
  endfacet
  facet normal -1 -0 0
    outer loop
      vertex -1.5 -3.5 2.5
      vertex -1.5 -11.145 1.36482e-015
      vertex -1.5 -11.145 2.5
    endloop
  endfacet
  facet normal -1 0 0
    outer loop
      vertex -1.5 -65.08 7.96974e-015
      vertex -1.5 -57.435 2.5
      vertex -1.5 -57.435 7.03353e-015
    endloop
  endfacet
  facet normal -1 -0 0
    outer loop
      vertex -1.5 -57.435 2.5
      vertex -1.5 -65.08 7.96974e-015
      vertex -1.5 -65.08 2.5
    endloop
  endfacet
  facet normal -1 0 0
    outer loop
      vertex -1.5 -52.435 6.42122e-015
      vertex -1.5 -16.145 2.5
      vertex -1.5 -16.145 1.97713e-015
    endloop
  endfacet
  facet normal -1 -0 0
    outer loop
      vertex -1.5 -16.145 2.5
      vertex -1.5 -52.435 6.42122e-015
      vertex -1.5 -52.435 2.5
    endloop
  endfacet
  facet normal -0.634396 -0.773008 0
    outer loop
      vertex -0.0355339 -68.6155 2.5
      vertex 0.722149 -69.2374 8.47885e-015
      vertex 0.722149 -69.2374 2.5
    endloop
  endfacet
  facet normal -0.634396 -0.773008 0
    outer loop
      vertex 0.722149 -69.2374 8.47885e-015
      vertex -0.0355339 -68.6155 2.5
      vertex -0.0355339 -68.6155 8.4027e-015
    endloop
  endfacet
  facet normal 0.634393 0.773011 -0
    outer loop
      vertex 53.3755 0.0355339 -4.3515e-018
      vertex 52.6179 0.657348 2.5
      vertex 53.3755 0.0355339 2.5
    endloop
  endfacet
  facet normal 0.634393 0.773011 0
    outer loop
      vertex 52.6179 0.657348 2.5
      vertex 53.3755 0.0355339 -4.3515e-018
      vertex 52.6179 0.657348 -8.04992e-017
    endloop
  endfacet
  facet normal 0.0980205 -0.995184 0
    outer loop
      vertex 49.84 -70.08 8.58204e-015
      vertex 50.8155 -69.9839 2.5
      vertex 49.84 -70.08 2.5
    endloop
  endfacet
  facet normal 0.0980205 -0.995184 0
    outer loop
      vertex 50.8155 -69.9839 2.5
      vertex 49.84 -70.08 8.58204e-015
      vertex 50.8155 -69.9839 8.57028e-015
    endloop
  endfacet
  facet normal 0 -1 0
    outer loop
      vertex 35 -70.08 8.58204e-015
      vertex 49.84 -70.08 2.5
      vertex 35 -70.08 2.5
    endloop
  endfacet
  facet normal 0 -1 -0
    outer loop
      vertex 49.84 -70.08 2.5
      vertex 35 -70.08 8.58204e-015
      vertex 49.84 -70.08 8.58204e-015
    endloop
  endfacet
  facet normal 0 -1 0
    outer loop
      vertex 3.5 -70.08 8.58204e-015
      vertex 19 -70.08 2.5
      vertex 3.5 -70.08 2.5
    endloop
  endfacet
  facet normal 0 -1 -0
    outer loop
      vertex 19 -70.08 2.5
      vertex 3.5 -70.08 8.58204e-015
      vertex 19 -70.08 8.58204e-015
    endloop
  endfacet
  facet normal -0.995185 -0.098018 0
    outer loop
      vertex -1.40393 -66.0555 8.08919e-015
      vertex -1.5 -65.08 2.5
      vertex -1.5 -65.08 7.96974e-015
    endloop
  endfacet
  facet normal -0.995185 -0.098018 0
    outer loop
      vertex -1.5 -65.08 2.5
      vertex -1.40393 -66.0555 8.08919e-015
      vertex -1.40393 -66.0555 2.5
    endloop
  endfacet
  facet normal -0.881921 -0.471397 0
    outer loop
      vertex -0.657348 -67.8578 8.30992e-015
      vertex -1.1194 -66.9934 2.5
      vertex -1.1194 -66.9934 8.20406e-015
    endloop
  endfacet
  facet normal -0.881921 -0.471397 0
    outer loop
      vertex -1.1194 -66.9934 2.5
      vertex -0.657348 -67.8578 8.30992e-015
      vertex -0.657348 -67.8578 2.5
    endloop
  endfacet
  facet normal 1 -0 0
    outer loop
      vertex 54.84 -65.08 2.5
      vertex 54.84 -57.435 7.03353e-015
      vertex 54.84 -57.435 2.5
    endloop
  endfacet
  facet normal 1 0 0
    outer loop
      vertex 54.84 -57.435 7.03353e-015
      vertex 54.84 -65.08 2.5
      vertex 54.84 -65.08 7.96974e-015
    endloop
  endfacet
  facet normal 1 -0 0
    outer loop
      vertex 54.84 -11.145 2.5
      vertex 54.84 -3.5 4.28612e-016
      vertex 54.84 -3.5 2.5
    endloop
  endfacet
  facet normal 1 0 0
    outer loop
      vertex 54.84 -3.5 4.28612e-016
      vertex 54.84 -11.145 2.5
      vertex 54.84 -11.145 1.36482e-015
    endloop
  endfacet
  facet normal 1 -0 0
    outer loop
      vertex 54.84 -52.435 2.5
      vertex 54.84 -16.145 1.97713e-015
      vertex 54.84 -16.145 2.5
    endloop
  endfacet
  facet normal 1 0 0
    outer loop
      vertex 54.84 -16.145 1.97713e-015
      vertex 54.84 -52.435 2.5
      vertex 54.84 -52.435 6.42122e-015
    endloop
  endfacet
  facet normal 0 1 -0
    outer loop
      vertex 49.84 1.5 -1.83691e-016
      vertex 3.5 1.5 2.5
      vertex 49.84 1.5 2.5
    endloop
  endfacet
  facet normal 0 1 0
    outer loop
      vertex 3.5 1.5 2.5
      vertex 49.84 1.5 -1.83691e-016
      vertex 3.5 1.5 -1.83691e-016
    endloop
  endfacet
  facet normal 0.77301 -0.634394 0
    outer loop
      vertex 53.3755 -68.6155 2.5
      vertex 53.9973 -67.8578 8.30992e-015
      vertex 53.9973 -67.8578 2.5
    endloop
  endfacet
  facet normal 0.77301 -0.634394 0
    outer loop
      vertex 53.9973 -67.8578 8.30992e-015
      vertex 53.3755 -68.6155 2.5
      vertex 53.3755 -68.6155 8.4027e-015
    endloop
  endfacet
  facet normal -0.95694 -0.290285 0
    outer loop
      vertex -1.1194 -66.9934 8.20406e-015
      vertex -1.40393 -66.0555 2.5
      vertex -1.40393 -66.0555 8.08919e-015
    endloop
  endfacet
  facet normal -0.95694 -0.290285 0
    outer loop
      vertex -1.40393 -66.0555 2.5
      vertex -1.1194 -66.9934 8.20406e-015
      vertex -1.1194 -66.9934 2.5
    endloop
  endfacet
  facet normal -0.773011 -0.634393 0
    outer loop
      vertex -0.0355339 -68.6155 8.4027e-015
      vertex -0.657348 -67.8578 2.5
      vertex -0.657348 -67.8578 8.30992e-015
    endloop
  endfacet
  facet normal -0.773011 -0.634393 0
    outer loop
      vertex -0.657348 -67.8578 2.5
      vertex -0.0355339 -68.6155 8.4027e-015
      vertex -0.0355339 -68.6155 2.5
    endloop
  endfacet
  facet normal 0.77301 0.634394 0
    outer loop
      vertex 53.9973 -0.722149 2.5
      vertex 53.3755 0.0355339 -4.3515e-018
      vertex 53.3755 0.0355339 2.5
    endloop
  endfacet
  facet normal 0.77301 0.634394 0
    outer loop
      vertex 53.3755 0.0355339 -4.3515e-018
      vertex 53.9973 -0.722149 2.5
      vertex 53.9973 -0.722149 8.84348e-017
    endloop
  endfacet
  facet normal 0.95694 0.290286 0
    outer loop
      vertex 54.7439 -2.52455 2.5
      vertex 54.4594 -1.58658 1.94294e-016
      vertex 54.4594 -1.58658 2.5
    endloop
  endfacet
  facet normal 0.95694 0.290286 0
    outer loop
      vertex 54.4594 -1.58658 1.94294e-016
      vertex 54.7439 -2.52455 2.5
      vertex 54.7439 -2.52455 3.09158e-016
    endloop
  endfacet
  facet normal -0.0980177 0.995185 0
    outer loop
      vertex 3.5 1.5 2.5
      vertex 2.52455 1.40393 -1.71926e-016
      vertex 2.52455 1.40393 2.5
    endloop
  endfacet
  facet normal -0.0980177 0.995185 0
    outer loop
      vertex 2.52455 1.40393 -1.71926e-016
      vertex 3.5 1.5 2.5
      vertex 3.5 1.5 -1.83691e-016
    endloop
  endfacet
  facet normal 0 0 1
    outer loop
      vertex 49.84 1.5 2.5
      vertex 54.84 -3.5 2.5
      vertex 54.7439 -2.52455 2.5
    endloop
  endfacet
  facet normal 0 0 1
    outer loop
      vertex 49.84 1.5 2.5
      vertex 54.7439 -2.52455 2.5
      vertex 54.4594 -1.58658 2.5
    endloop
  endfacet
  facet normal 0 0 1
    outer loop
      vertex 49.84 1.5 2.5
      vertex 54.4594 -1.58658 2.5
      vertex 53.9973 -0.722149 2.5
    endloop
  endfacet
  facet normal 0 0 1
    outer loop
      vertex 49.84 1.5 2.5
      vertex 53.9973 -0.722149 2.5
      vertex 53.3755 0.0355339 2.5
    endloop
  endfacet
  facet normal 0 0 1
    outer loop
      vertex 54.84 -3.5 2.5
      vertex 53.09 -11.145 2.5
      vertex 54.84 -11.145 2.5
    endloop
  endfacet
  facet normal 0 0 1
    outer loop
      vertex 49.84 1.5 2.5
      vertex 53.3755 0.0355339 2.5
      vertex 52.6179 0.657348 2.5
    endloop
  endfacet
  facet normal 0 0 1
    outer loop
      vertex 54.84 -3.5 2.5
      vertex 52.1025 -11.145 2.5
      vertex 53.09 -11.145 2.5
    endloop
  endfacet
  facet normal -0 0 1
    outer loop
      vertex 1.2375 -16.145 2.5
      vertex 52.1025 -16.145 2.5
      vertex 52.1025 -11.145 2.5
    endloop
  endfacet
  facet normal 0 -0 1
    outer loop
      vertex 19 -64 2.5
      vertex 52.1025 -16.145 2.5
      vertex 1.2375 -16.145 2.5
    endloop
  endfacet
  facet normal 0 0 1
    outer loop
      vertex 54.84 -3.5 2.5
      vertex 49.84 1.5 2.5
      vertex 52.1025 -11.145 2.5
    endloop
  endfacet
  facet normal 0 0 1
    outer loop
      vertex 49.84 1.5 2.5
      vertex 52.6179 0.657348 2.5
      vertex 51.7534 1.1194 2.5
    endloop
  endfacet
  facet normal -0 0 1
    outer loop
      vertex 53.09 -16.145 2.5
      vertex 54.84 -52.435 2.5
      vertex 54.84 -16.145 2.5
    endloop
  endfacet
  facet normal 0 0 1
    outer loop
      vertex 53.09 -16.145 2.5
      vertex 53.09 -52.435 2.5
      vertex 54.84 -52.435 2.5
    endloop
  endfacet
  facet normal -0 0 1
    outer loop
      vertex 52.1025 -16.145 2.5
      vertex 53.09 -52.435 2.5
      vertex 53.09 -16.145 2.5
    endloop
  endfacet
  facet normal 0 0 1
    outer loop
      vertex 53.09 -52.435 2.5
      vertex 52.1025 -16.145 2.5
      vertex 52.1025 -52.435 2.5
    endloop
  endfacet
  facet normal -0 0 1
    outer loop
      vertex 53.09 -57.435 2.5
      vertex 54.84 -65.08 2.5
      vertex 54.84 -57.435 2.5
    endloop
  endfacet
  facet normal -0 0 1
    outer loop
      vertex 52.1025 -57.435 2.5
      vertex 54.84 -65.08 2.5
      vertex 53.09 -57.435 2.5
    endloop
  endfacet
  facet normal 0 0 1
    outer loop
      vertex 49.84 -70.08 2.5
      vertex 54.84 -65.08 2.5
      vertex 52.1025 -57.435 2.5
    endloop
  endfacet
  facet normal 0 0 1
    outer loop
      vertex 54.84 -65.08 2.5
      vertex 49.84 -70.08 2.5
      vertex 54.7439 -66.0555 2.5
    endloop
  endfacet
  facet normal 0 0 1
    outer loop
      vertex 54.7439 -66.0555 2.5
      vertex 49.84 -70.08 2.5
      vertex 54.4594 -66.9934 2.5
    endloop
  endfacet
  facet normal 0 0 1
    outer loop
      vertex 54.4594 -66.9934 2.5
      vertex 49.84 -70.08 2.5
      vertex 53.9973 -67.8578 2.5
    endloop
  endfacet
  facet normal 0 0 1
    outer loop
      vertex 53.9973 -67.8578 2.5
      vertex 49.84 -70.08 2.5
      vertex 53.3755 -68.6155 2.5
    endloop
  endfacet
  facet normal 0 0 1
    outer loop
      vertex 53.3755 -68.6155 2.5
      vertex 49.84 -70.08 2.5
      vertex 52.6179 -69.2374 2.5
    endloop
  endfacet
  facet normal 0 0 1
    outer loop
      vertex 1.2375 -11.145 2.5
      vertex 52.1025 -11.145 2.5
      vertex 49.84 1.5 2.5
    endloop
  endfacet
  facet normal 0 0 1
    outer loop
      vertex 49.84 1.5 2.5
      vertex 51.7534 1.1194 2.5
      vertex 50.8155 1.40393 2.5
    endloop
  endfacet
  facet normal 0 -0 1
    outer loop
      vertex 49.84 -70.08 2.5
      vertex 52.1025 -57.435 2.5
      vertex 35 -64 2.5
    endloop
  endfacet
  facet normal 0 0 1
    outer loop
      vertex 52.1025 -16.145 2.5
      vertex 35 -64 2.5
      vertex 52.1025 -52.435 2.5
    endloop
  endfacet
  facet normal 0 0 1
    outer loop
      vertex 52.6179 -69.2374 2.5
      vertex 49.84 -70.08 2.5
      vertex 51.7534 -69.6994 2.5
    endloop
  endfacet
  facet normal 0 0 1
    outer loop
      vertex 51.7534 -69.6994 2.5
      vertex 49.84 -70.08 2.5
      vertex 50.8155 -69.9839 2.5
    endloop
  endfacet
  facet normal 0 0 1
    outer loop
      vertex 52.1025 -52.435 2.5
      vertex 35 -64 2.5
      vertex 52.1025 -57.435 2.5
    endloop
  endfacet
  facet normal 0 0 1
    outer loop
      vertex 1.2375 -11.145 2.5
      vertex 49.84 1.5 2.5
      vertex 3.5 1.5 2.5
    endloop
  endfacet
  facet normal 0 0 1
    outer loop
      vertex 52.1025 -16.145 2.5
      vertex 19 -64 2.5
      vertex 35 -64 2.5
    endloop
  endfacet
  facet normal -0 0 1
    outer loop
      vertex 1.2375 -52.435 2.5
      vertex 19 -64 2.5
      vertex 1.2375 -16.145 2.5
    endloop
  endfacet
  facet normal 0 0 1
    outer loop
      vertex -1.5 -3.5 2.5
      vertex 3.5 1.5 2.5
      vertex 2.52455 1.40393 2.5
    endloop
  endfacet
  facet normal -0 0 1
    outer loop
      vertex 1.2375 -57.435 2.5
      vertex 19 -64 2.5
      vertex 1.2375 -52.435 2.5
    endloop
  endfacet
  facet normal 0 0 1
    outer loop
      vertex -1.5 -3.5 2.5
      vertex 2.52455 1.40393 2.5
      vertex 1.58658 1.1194 2.5
    endloop
  endfacet
  facet normal 0 -0 1
    outer loop
      vertex 3.5 -70.08 2.5
      vertex 19 -64 2.5
      vertex 1.2375 -57.435 2.5
    endloop
  endfacet
  facet normal 0 0 1
    outer loop
      vertex 52.1025 -11.145 2.5
      vertex 1.2375 -11.145 2.5
      vertex 1.2375 -16.145 2.5
    endloop
  endfacet
  facet normal 0 0 1
    outer loop
      vertex -1.5 -3.5 2.5
      vertex 1.58658 1.1194 2.5
      vertex 0.722149 0.657348 2.5
    endloop
  endfacet
  facet normal 0 0 1
    outer loop
      vertex 3.5 1.5 2.5
      vertex -1.5 -3.5 2.5
      vertex 1.2375 -11.145 2.5
    endloop
  endfacet
  facet normal 0 0 1
    outer loop
      vertex -1.5 -3.5 2.5
      vertex 0.722149 0.657348 2.5
      vertex -0.0355339 0.0355339 2.5
    endloop
  endfacet
  facet normal 0 0 1
    outer loop
      vertex -1.5 -3.5 2.5
      vertex -0.0355339 0.0355339 2.5
      vertex -0.657348 -0.722149 2.5
    endloop
  endfacet
  facet normal 0 0 1
    outer loop
      vertex -1.5 -3.5 2.5
      vertex -0.657348 -0.722149 2.5
      vertex -1.1194 -1.58658 2.5
    endloop
  endfacet
  facet normal 0 0 1
    outer loop
      vertex -1.5 -3.5 2.5
      vertex -1.1194 -1.58658 2.5
      vertex -1.40393 -2.52455 2.5
    endloop
  endfacet
  facet normal 0 0 1
    outer loop
      vertex 1.2375 -11.145 2.5
      vertex -1.5 -3.5 2.5
      vertex 0.25 -11.145 2.5
    endloop
  endfacet
  facet normal 0 0 1
    outer loop
      vertex 0.25 -11.145 2.5
      vertex -1.5 -3.5 2.5
      vertex -1.5 -11.145 2.5
    endloop
  endfacet
  facet normal -0 0 1
    outer loop
      vertex 0.25 -16.145 2.5
      vertex 1.2375 -52.435 2.5
      vertex 1.2375 -16.145 2.5
    endloop
  endfacet
  facet normal 0 0 1
    outer loop
      vertex 0.25 -16.145 2.5
      vertex 0.25 -52.435 2.5
      vertex 1.2375 -52.435 2.5
    endloop
  endfacet
  facet normal -0 0 1
    outer loop
      vertex -1.5 -16.145 2.5
      vertex 0.25 -52.435 2.5
      vertex 0.25 -16.145 2.5
    endloop
  endfacet
  facet normal 0 0 1
    outer loop
      vertex 0.25 -52.435 2.5
      vertex -1.5 -16.145 2.5
      vertex -1.5 -52.435 2.5
    endloop
  endfacet
  facet normal 0 0 1
    outer loop
      vertex 49.84 -70.08 2.5
      vertex 35 -64 2.5
      vertex 35 -70.08 2.5
    endloop
  endfacet
  facet normal 0 0 1
    outer loop
      vertex 19 -64 2.5
      vertex 3.5 -70.08 2.5
      vertex 19 -70.08 2.5
    endloop
  endfacet
  facet normal -0 0 1
    outer loop
      vertex -1.5 -65.08 2.5
      vertex 3.5 -70.08 2.5
      vertex 1.2375 -57.435 2.5
    endloop
  endfacet
  facet normal 0 0 1
    outer loop
      vertex 3.5 -70.08 2.5
      vertex -1.5 -65.08 2.5
      vertex 2.52455 -69.9839 2.5
    endloop
  endfacet
  facet normal 0 0 1
    outer loop
      vertex 2.52455 -69.9839 2.5
      vertex -1.5 -65.08 2.5
      vertex 1.58658 -69.6994 2.5
    endloop
  endfacet
  facet normal 0 0 1
    outer loop
      vertex -1.5 -65.08 2.5
      vertex 1.2375 -57.435 2.5
      vertex 0.25 -57.435 2.5
    endloop
  endfacet
  facet normal 0 0 1
    outer loop
      vertex 1.58658 -69.6994 2.5
      vertex -1.5 -65.08 2.5
      vertex 0.722149 -69.2374 2.5
    endloop
  endfacet
  facet normal 0 0 1
    outer loop
      vertex 0.722149 -69.2374 2.5
      vertex -1.5 -65.08 2.5
      vertex -0.0355339 -68.6155 2.5
    endloop
  endfacet
  facet normal 0 0 1
    outer loop
      vertex -0.0355339 -68.6155 2.5
      vertex -1.5 -65.08 2.5
      vertex -0.657348 -67.8578 2.5
    endloop
  endfacet
  facet normal 0 0 1
    outer loop
      vertex -0.657348 -67.8578 2.5
      vertex -1.5 -65.08 2.5
      vertex -1.1194 -66.9934 2.5
    endloop
  endfacet
  facet normal 0 0 1
    outer loop
      vertex -1.5 -65.08 2.5
      vertex 0.25 -57.435 2.5
      vertex -1.5 -57.435 2.5
    endloop
  endfacet
  facet normal 0 0 1
    outer loop
      vertex -1.1194 -66.9934 2.5
      vertex -1.5 -65.08 2.5
      vertex -1.40393 -66.0555 2.5
    endloop
  endfacet
  facet normal 0.881922 -0.471395 0
    outer loop
      vertex 53.9973 -67.8578 2.5
      vertex 54.4594 -66.9934 8.20406e-015
      vertex 54.4594 -66.9934 2.5
    endloop
  endfacet
  facet normal 0.881922 -0.471395 0
    outer loop
      vertex 54.4594 -66.9934 8.20406e-015
      vertex 53.9973 -67.8578 2.5
      vertex 53.9973 -67.8578 8.30992e-015
    endloop
  endfacet
  facet normal 0.95694 -0.290286 0
    outer loop
      vertex 54.4594 -66.9934 2.5
      vertex 54.7439 -66.0555 8.08919e-015
      vertex 54.7439 -66.0555 2.5
    endloop
  endfacet
  facet normal 0.95694 -0.290286 0
    outer loop
      vertex 54.7439 -66.0555 8.08919e-015
      vertex 54.4594 -66.9934 2.5
      vertex 54.4594 -66.9934 8.20406e-015
    endloop
  endfacet
  facet normal 0.471392 -0.881924 0
    outer loop
      vertex 51.7534 -69.6994 8.53543e-015
      vertex 52.6179 -69.2374 2.5
      vertex 51.7534 -69.6994 2.5
    endloop
  endfacet
  facet normal 0.471392 -0.881924 0
    outer loop
      vertex 52.6179 -69.2374 2.5
      vertex 51.7534 -69.6994 8.53543e-015
      vertex 52.6179 -69.2374 8.47885e-015
    endloop
  endfacet
  facet normal 0.290286 -0.95694 0
    outer loop
      vertex 50.8155 -69.9839 8.57028e-015
      vertex 51.7534 -69.6994 2.5
      vertex 50.8155 -69.9839 2.5
    endloop
  endfacet
  facet normal 0.290286 -0.95694 0
    outer loop
      vertex 51.7534 -69.6994 2.5
      vertex 50.8155 -69.9839 8.57028e-015
      vertex 51.7534 -69.6994 8.53543e-015
    endloop
  endfacet
  facet normal -0.290286 -0.95694 0
    outer loop
      vertex 1.58658 -69.6994 2.5
      vertex 2.52455 -69.9839 8.57028e-015
      vertex 2.52455 -69.9839 2.5
    endloop
  endfacet
  facet normal -0.290286 -0.95694 0
    outer loop
      vertex 2.52455 -69.9839 8.57028e-015
      vertex 1.58658 -69.6994 2.5
      vertex 1.58658 -69.6994 8.53543e-015
    endloop
  endfacet
  facet normal -0.471392 -0.881924 0
    outer loop
      vertex 0.722149 -69.2374 2.5
      vertex 1.58658 -69.6994 8.53543e-015
      vertex 1.58658 -69.6994 2.5
    endloop
  endfacet
  facet normal -0.471392 -0.881924 0
    outer loop
      vertex 1.58658 -69.6994 8.53543e-015
      vertex 0.722149 -69.2374 2.5
      vertex 0.722149 -69.2374 8.47885e-015
    endloop
  endfacet
  facet normal 0.881922 0.471395 0
    outer loop
      vertex 54.4594 -1.58658 2.5
      vertex 53.9973 -0.722149 8.84348e-017
      vertex 53.9973 -0.722149 2.5
    endloop
  endfacet
  facet normal 0.881922 0.471395 0
    outer loop
      vertex 53.9973 -0.722149 8.84348e-017
      vertex 54.4594 -1.58658 2.5
      vertex 54.4594 -1.58658 1.94294e-016
    endloop
  endfacet
  facet normal 0.995185 0.0980167 0
    outer loop
      vertex 54.84 -3.5 2.5
      vertex 54.7439 -2.52455 3.09158e-016
      vertex 54.7439 -2.52455 2.5
    endloop
  endfacet
  facet normal 0.995185 0.0980167 0
    outer loop
      vertex 54.7439 -2.52455 3.09158e-016
      vertex 54.84 -3.5 2.5
      vertex 54.84 -3.5 4.28612e-016
    endloop
  endfacet
  facet normal 0.290285 0.95694 -0
    outer loop
      vertex 51.7534 1.1194 -1.37082e-016
      vertex 50.8155 1.40393 2.5
      vertex 51.7534 1.1194 2.5
    endloop
  endfacet
  facet normal 0.290285 0.95694 0
    outer loop
      vertex 50.8155 1.40393 2.5
      vertex 51.7534 1.1194 -1.37082e-016
      vertex 50.8155 1.40393 -1.71926e-016
    endloop
  endfacet
  facet normal 0.0980176 0.995185 -0
    outer loop
      vertex 50.8155 1.40393 -1.71926e-016
      vertex 49.84 1.5 2.5
      vertex 50.8155 1.40393 2.5
    endloop
  endfacet
  facet normal 0.0980176 0.995185 0
    outer loop
      vertex 49.84 1.5 2.5
      vertex 50.8155 1.40393 -1.71926e-016
      vertex 49.84 1.5 -1.83691e-016
    endloop
  endfacet
  facet normal 0.471397 0.881921 -0
    outer loop
      vertex 52.6179 0.657348 -8.04992e-017
      vertex 51.7534 1.1194 2.5
      vertex 52.6179 0.657348 2.5
    endloop
  endfacet
  facet normal 0.471397 0.881921 0
    outer loop
      vertex 51.7534 1.1194 2.5
      vertex 52.6179 0.657348 -8.04992e-017
      vertex 51.7534 1.1194 -1.37082e-016
    endloop
  endfacet
  facet normal -0.471397 0.881921 0
    outer loop
      vertex 1.58658 1.1194 2.5
      vertex 0.722149 0.657348 -8.04992e-017
      vertex 0.722149 0.657348 2.5
    endloop
  endfacet
  facet normal -0.471397 0.881921 0
    outer loop
      vertex 0.722149 0.657348 -8.04992e-017
      vertex 1.58658 1.1194 2.5
      vertex 1.58658 1.1194 -1.37082e-016
    endloop
  endfacet
  facet normal -0.634393 0.773011 0
    outer loop
      vertex 0.722149 0.657348 2.5
      vertex -0.0355339 0.0355339 -4.3515e-018
      vertex -0.0355339 0.0355339 2.5
    endloop
  endfacet
  facet normal -0.634393 0.773011 0
    outer loop
      vertex -0.0355339 0.0355339 -4.3515e-018
      vertex 0.722149 0.657348 2.5
      vertex 0.722149 0.657348 -8.04992e-017
    endloop
  endfacet
  facet normal -0.290285 0.95694 0
    outer loop
      vertex 2.52455 1.40393 2.5
      vertex 1.58658 1.1194 -1.37082e-016
      vertex 1.58658 1.1194 2.5
    endloop
  endfacet
  facet normal -0.290285 0.95694 0
    outer loop
      vertex 1.58658 1.1194 -1.37082e-016
      vertex 2.52455 1.40393 2.5
      vertex 2.52455 1.40393 -1.71926e-016
    endloop
  endfacet
  facet normal -0.881921 0.471397 0
    outer loop
      vertex -1.1194 -1.58658 1.94294e-016
      vertex -0.657348 -0.722149 2.5
      vertex -0.657348 -0.722149 8.84348e-017
    endloop
  endfacet
  facet normal -0.881921 0.471397 0
    outer loop
      vertex -0.657348 -0.722149 2.5
      vertex -1.1194 -1.58658 1.94294e-016
      vertex -1.1194 -1.58658 2.5
    endloop
  endfacet
  facet normal -0.773011 0.634393 0
    outer loop
      vertex -0.657348 -0.722149 8.84348e-017
      vertex -0.0355339 0.0355339 2.5
      vertex -0.0355339 0.0355339 -4.3515e-018
    endloop
  endfacet
  facet normal -0.773011 0.634393 0
    outer loop
      vertex -0.0355339 0.0355339 2.5
      vertex -0.657348 -0.722149 8.84348e-017
      vertex -0.657348 -0.722149 2.5
    endloop
  endfacet
  facet normal -0.995185 0.0980177 0
    outer loop
      vertex -1.5 -3.5 4.28612e-016
      vertex -1.40393 -2.52455 2.5
      vertex -1.40393 -2.52455 3.09158e-016
    endloop
  endfacet
  facet normal -0.995185 0.0980177 0
    outer loop
      vertex -1.40393 -2.52455 2.5
      vertex -1.5 -3.5 4.28612e-016
      vertex -1.5 -3.5 2.5
    endloop
  endfacet
  facet normal 0.634396 -0.773008 0
    outer loop
      vertex 52.6179 -69.2374 8.47885e-015
      vertex 53.3755 -68.6155 2.5
      vertex 52.6179 -69.2374 2.5
    endloop
  endfacet
  facet normal 0.634396 -0.773008 0
    outer loop
      vertex 53.3755 -68.6155 2.5
      vertex 52.6179 -69.2374 8.47885e-015
      vertex 53.3755 -68.6155 8.4027e-015
    endloop
  endfacet
  facet normal -0.0980206 -0.995184 0
    outer loop
      vertex 2.52455 -69.9839 2.5
      vertex 3.5 -70.08 8.58204e-015
      vertex 3.5 -70.08 2.5
    endloop
  endfacet
  facet normal -0.0980206 -0.995184 0
    outer loop
      vertex 3.5 -70.08 8.58204e-015
      vertex 2.52455 -69.9839 2.5
      vertex 2.52455 -69.9839 8.57028e-015
    endloop
  endfacet
  facet normal -0.95694 0.290285 0
    outer loop
      vertex -1.40393 -2.52455 3.09158e-016
      vertex -1.1194 -1.58658 2.5
      vertex -1.1194 -1.58658 1.94294e-016
    endloop
  endfacet
  facet normal -0.95694 0.290285 0
    outer loop
      vertex -1.1194 -1.58658 2.5
      vertex -1.40393 -2.52455 3.09158e-016
      vertex -1.40393 -2.52455 2.5
    endloop
  endfacet
  facet normal 1 0 0
    outer loop
      vertex 19 -70.08 8.58204e-015
      vertex 19 -64 2.5
      vertex 19 -70.08 2.5
    endloop
  endfacet
  facet normal 1 0 0
    outer loop
      vertex 19 -64 2.5
      vertex 19 -70.08 8.58204e-015
      vertex 19 -64 -5
    endloop
  endfacet
  facet normal 1 0 0
    outer loop
      vertex 19 -75.58 -5
      vertex 19 -70.08 8.58204e-015
      vertex 19 -75.58 9.25557e-015
    endloop
  endfacet
  facet normal 1 0 0
    outer loop
      vertex 19 -70.08 8.58204e-015
      vertex 19 -75.58 -5
      vertex 19 -64 -5
    endloop
  endfacet
  facet normal 0 -1 0
    outer loop
      vertex 19 -64 -5
      vertex 35 -64 2.5
      vertex 19 -64 2.5
    endloop
  endfacet
  facet normal 0 -1 -0
    outer loop
      vertex 35 -64 2.5
      vertex 19 -64 -5
      vertex 35 -64 -5
    endloop
  endfacet
  facet normal -1 0 0
    outer loop
      vertex 35 -64 -5
      vertex 35 -70.08 8.58204e-015
      vertex 35 -64 2.5
    endloop
  endfacet
  facet normal -1 0 0
    outer loop
      vertex 35 -75.58 -5
      vertex 35 -70.08 8.58204e-015
      vertex 35 -64 -5
    endloop
  endfacet
  facet normal -1 -0 0
    outer loop
      vertex 35 -70.08 8.58204e-015
      vertex 35 -75.58 -5
      vertex 35 -75.58 9.25557e-015
    endloop
  endfacet
  facet normal -1 -0 0
    outer loop
      vertex 35 -64 2.5
      vertex 35 -70.08 8.58204e-015
      vertex 35 -70.08 2.5
    endloop
  endfacet
endsolid OpenSCAD_Model
